<svg width="21" height="40" viewBox="0 0 21 40" fill="none" xmlns="http://www.w3.org/2000/svg">
<path id="Vector" d="M20.9937 19.8913C20.9718 19.6879 20.8818 19.498 20.7382 19.3519L1.66635 0.281687C1.49806 0.105159 1.26608 0.00342619 1.02204 -0.000378944C0.778013 -0.00418197 0.542859 0.0905787 0.369494 0.262036C0.196138 0.433494 0.0988407 0.6677 0.09979 0.911414C0.100741 1.15545 0.199941 1.3887 0.374879 1.55889L18.809 19.9906L0.374878 38.4223L0.374878 38.4227C0.199939 38.5925 0.100738 38.8258 0.0997883 39.0698C0.0988376 39.3139 0.196136 39.5477 0.369492 39.7192C0.542849 39.891 0.778012 39.9854 1.02204 39.9816C1.26607 39.9778 1.49806 39.8764 1.66635 39.6996L20.739 20.6293C20.9308 20.4344 21.0246 20.1634 20.9945 19.8915L20.9937 19.8913Z" fill="#797979"/>
</svg>
