<svg width="124" height="102" viewBox="0 0 124 102" fill="none" xmlns="http://www.w3.org/2000/svg">
<path fill-rule="evenodd" clip-rule="evenodd" d="M1.87824 0C0.840917 0 0 0.840917 0 1.87824C0 2.91556 0.840917 3.75648 1.87824 3.75648H15.5306C16.881 3.75648 18.0744 4.64074 18.4681 5.93736L18.4682 5.93738L39.8406 76.3245C40.7142 79.2015 43.3654 81.1704 46.3724 81.1704H94.5269C97.6517 81.1704 100.377 79.0472 101.144 76.0176L101.144 76.0174L109.767 41.9958L109.767 41.9955C110.112 40.6305 111.339 39.6766 112.743 39.6766H121.264C122.302 39.6766 123.143 38.8357 123.143 37.7983C123.143 36.761 122.302 35.9201 121.264 35.9201H112.743C109.618 35.9201 106.893 38.0431 106.125 41.0729L106.125 41.0732L97.5031 75.0948L97.503 75.095C97.1573 76.4599 95.9304 77.4139 94.5269 77.4139H46.3724C45.0222 77.4139 43.8287 76.5297 43.435 75.233L22.0626 4.84598L22.0626 4.84596C21.189 1.96875 18.5377 0 15.5306 0H1.87824ZM69.8472 21.621C70.5719 20.8956 71.7469 20.8956 72.4716 21.621L84.2814 33.445C85.0061 34.1705 85.0061 35.3468 84.2814 36.0724C83.5567 36.798 82.3818 36.798 81.6571 36.0724L73.0152 27.4204V57.6163H69.3036V27.4203L60.6617 36.0724C59.937 36.798 58.7619 36.798 58.0372 36.0724C57.3126 35.3468 57.3126 34.1705 58.0372 33.445L69.8472 21.621ZM58.1691 90.0844C55.9259 90.0844 54.1045 91.9055 54.1045 94.1557C54.1045 96.4058 55.9259 98.2269 58.1691 98.2269C60.4123 98.2269 62.2337 96.4058 62.2337 94.1557C62.2337 91.9055 60.4123 90.0844 58.1691 90.0844ZM51.0993 94.1557C51.0993 90.2491 54.2629 87.0793 58.1691 87.0793C62.0753 87.0793 65.2389 90.2491 65.2389 94.1557C65.2389 98.0622 62.0753 101.232 58.1691 101.232C54.2629 101.232 51.0993 98.0622 51.0993 94.1557ZM81.3221 94.1557C81.3221 91.9055 83.1435 90.0844 85.3867 90.0844C87.6299 90.0844 89.4514 91.9055 89.4514 94.1557C89.4514 96.4058 87.6299 98.2269 85.3867 98.2269C83.1435 98.2269 81.3221 96.4058 81.3221 94.1557ZM85.3867 87.0793C81.4805 87.0793 78.3169 90.2491 78.3169 94.1557C78.3169 98.0622 81.4805 101.232 85.3867 101.232C89.2929 101.232 92.4565 98.0622 92.4565 94.1557C92.4565 90.2491 89.2929 87.0793 85.3867 87.0793Z" fill="white"/>
</svg>
