<svg width="1512" height="2104" viewBox="0 0 1512 2104" fill="none" xmlns="http://www.w3.org/2000/svg">
<path fill-rule="evenodd" clip-rule="evenodd" d="M-150 1329.11L-150 1348.2L152.94 1066.03L326.85 1282.65L274.228 1394.87L-150 1422.84L-150 1436.86L-46.215 1430.02L-150 1554.15L-150 1576.01L-26.9587 1428.73L138.045 1417.86L48.2854 1690.16L-150 1607.67L-150 1622.8L81.8052 1719.25L330.23 1822.6L404.114 1853.34L-41.4325 2104L-12.9337 2104L407.466 1867.5L326.135 2104L340.875 2104L464.533 1744.52L535.752 1890.57L639.86 2104L655.4 2104L550.563 1889.07L786.393 1666.52L786.463 1666.45L1071.42 1397.55L1096.22 1451.21L844.373 1855.84L689.887 2104L706.338 2104L1103.25 1466.39L1251 1786.2L1302.37 1897.36L1041.16 1998.35L1040.96 1998.35L767.992 2104L828.3 2104L829.183 2095.3L1037.33 2014.8L1044.26 2104L1058.28 2104L1051.84 2021.24L1148.41 2104L1169.86 2104L1056.98 2007.22L1308.24 1910.03L1350.77 2002.07L1285.08 2104L1301.71 2104L1357.69 2017.03L1397.88 2104L1413.31 2104L1365.15 1999.77L1365.06 1999.6L1318.21 1898.2L1266.1 1785.59L1533 1595.79L1533 1578.65L1260.14 1772.63L1196.53 1634.98L1270.33 1313.37L1460.74 1427.47L1460.98 1427.61L1533 1470.75L1533 1454.47L1471.29 1417.49L1458.32 1052L1444.29 1052L1456.91 1408.94L1269.33 1296.53L1269.2 1296.46L1182.25 1244.39L1270.73 1052L1255.31 1052L1194.49 1184.38L1170.33 1237.15L950.584 1105.5L950.43 1105.4L861.203 1052L834.008 1052L941.397 1116.34L1065.24 1384.17L787.333 1646.46L734.978 1052L720.953 1052L774.374 1658.64L544.153 1875.91L470.957 1725.83L588.543 1383.91C588.537 1383.89 588.537 1383.86 588.543 1383.83L702.72 1052L687.952 1052L582.526 1358.45L493.748 1052L479.19 1052L572.82 1375.2L290.147 1393.83L341.282 1284.77L341.394 1284.53L450.424 1052L434.997 1052L333.442 1268.56L159.63 1052L141.72 1052L144.217 1055.11L-150 1329.11ZM148.971 1429.32L61.2305 1695.54L319.248 1802.9L148.971 1429.32ZM415.853 1843.1L456.806 1724.03L571.923 1389.27L279.431 1408.57L279.095 1408.57L158.48 1416.51L338.196 1810.84L376.681 1826.8L415.853 1843.1ZM1110.48 1448.73L1186.95 1614.24L1257.72 1305.88L1169.84 1253.16L962.758 1129.15L1079.95 1382.72L1080.1 1383.03L1110.48 1448.73Z" fill="white"/>
<path fill-rule="evenodd" clip-rule="evenodd" d="M1574 774.889V755.799L1271.06 1037.97L1097.15 821.346L1149.77 709.132L1574 681.163V667.136L1470.22 673.981L1574 549.845V527.992L1450.96 675.272L1285.95 686.142L1375.71 413.843L1574 496.334V481.199L1342.19 384.751L1093.77 281.403L1019.89 250.657L1465.43 0H1436.93L1016.53 236.504L1097.87 0H1083.12L959.467 359.475L888.248 213.43L784.14 0H768.6L873.437 214.931L637.607 437.478L637.537 437.548L352.577 706.453L327.781 652.787L579.628 248.16L734.113 0H717.662L320.754 637.61L173.001 317.802L121.627 206.641L382.843 105.649H383.039L656.008 0H595.7L594.817 8.69653L386.672 89.1956L379.743 0H365.718L372.156 82.7573L275.594 0H254.135L367.023 96.784L115.765 193.975L73.2268 101.932L138.92 0H122.286L66.3125 86.9653L26.1169 0H10.6893L58.8512 104.232L58.9353 104.4L105.793 205.799L157.896 318.405L-109 508.214V525.355L163.856 331.366L227.474 469.024L153.674 790.627L-36.7432 676.534L-36.9816 676.394L-109 633.248V649.533L-47.29 686.507L-34.3169 1052H-20.2919L-32.9144 695.063L154.67 807.473L154.796 807.543L241.751 859.61L153.268 1052H168.695L229.507 919.616L253.672 866.848L473.416 998.502L473.57 998.6L562.798 1052H589.992L482.603 987.66L358.762 719.835L636.667 457.536L689.023 1052H703.048L649.626 445.361L879.847 228.088L953.043 378.173L835.458 720.087C835.464 720.115 835.464 720.143 835.458 720.171L721.28 1052H736.048L841.474 745.545L930.253 1052H944.81L851.18 728.798L1133.85 710.17L1082.72 819.227L1082.61 819.466L973.576 1052H989.003L1090.56 835.442L1264.37 1052H1282.28L1279.78 1048.89L1574 774.889ZM1275.03 674.683L1362.77 408.457L1104.75 301.096L1275.03 674.683ZM1008.15 260.896L967.194 379.968L852.077 714.729L1144.57 695.428H1144.91L1265.52 687.489L1085.8 293.157L1047.32 277.195L1008.15 260.896ZM313.517 655.27L237.053 489.755L166.283 798.117L254.163 850.844L461.242 974.853L344.05 721.279L343.895 720.971L313.517 655.27Z" fill="white"/>
</svg>
