<svg width="1512" height="2399" viewBox="0 0 1512 2399" fill="none" xmlns="http://www.w3.org/2000/svg">
<path fill-rule="evenodd" clip-rule="evenodd" d="M-150 774.889L-150 755.799L152.94 1037.97L326.85 821.346L274.228 709.132L-150 681.163L-150 667.136L-46.215 673.981L-150 549.845L-150 527.992L-26.9587 675.272L138.045 686.143L48.2854 413.843L-150 496.334L-150 481.199L81.8052 384.752L330.23 281.403L404.114 250.657L-41.4325 0.000137641L-12.9337 0.00013515L407.466 236.504L326.135 0.000105508L340.875 0.000104219L464.533 359.475L535.752 213.43L639.86 7.80808e-05L655.4 7.67223e-05L550.563 214.931L786.393 437.478L786.463 437.548L1071.42 706.453L1096.22 652.787L844.373 248.16L689.887 7.37073e-05L706.338 7.2269e-05L1103.25 637.61L1251 317.802L1302.37 206.641L1041.16 105.649L1040.96 105.649L767.992 6.68791e-05L828.3 6.16068e-05L829.183 8.69659L1037.33 89.1956L1044.26 4.27273e-05L1058.28 4.15012e-05L1051.84 82.7574L1148.41 3.36222e-05L1169.86 3.17463e-05L1056.98 96.784L1308.24 193.975L1350.77 101.932L1285.08 2.16738e-05L1301.71 2.02197e-05L1357.69 86.9653L1397.88 1.18123e-05L1413.31 1.04636e-05L1365.15 104.232L1365.06 104.4L1318.21 205.799L1266.1 318.405L1533 508.214L1533 525.355L1260.14 331.366L1196.53 469.024L1270.33 790.627L1460.74 676.534L1460.98 676.394L1533 633.248L1533 649.533L1471.29 686.507L1458.32 1052L1444.29 1052L1456.91 695.063L1269.33 807.473L1269.2 807.543L1182.25 859.61L1270.73 1052L1255.31 1052L1194.49 919.616L1170.33 866.848L950.584 998.502L950.43 998.601L861.203 1052L834.008 1052L941.397 987.66L1065.24 719.835L787.333 457.536L734.978 1052L720.953 1052L774.374 445.361L544.153 228.088L470.957 378.173L588.543 720.087C588.537 720.115 588.537 720.144 588.543 720.171L702.72 1052L687.952 1052L582.526 745.545L493.748 1052L479.19 1052L572.82 728.798L290.147 710.17L341.282 819.228L341.394 819.466L450.424 1052L434.997 1052L333.442 835.442L159.63 1052L141.72 1052L144.217 1048.89L-150 774.889ZM148.971 674.683L61.2305 408.457L319.248 301.097L148.971 674.683ZM415.853 260.896L456.806 379.969L571.923 714.729L279.431 695.428L279.095 695.428L158.48 687.489L338.196 293.157L376.681 277.195L415.853 260.896ZM1110.48 655.27L1186.95 489.755L1257.72 798.117L1169.84 850.844L962.758 974.853L1079.95 721.279L1080.1 720.971L1110.48 655.27Z" fill="white"/>
<path fill-rule="evenodd" clip-rule="evenodd" d="M-150 1344.11L-150 1363.2L152.94 1081.03L326.85 1297.65L274.228 1409.87L-150 1437.84L-150 1451.86L-46.215 1445.02L-150 1569.15L-150 1591.01L-26.9587 1443.73L138.045 1432.86L48.2854 1705.16L-150 1622.67L-150 1637.8L81.8052 1734.25L330.23 1837.6L404.114 1868.34L-41.4325 2119L-12.9337 2119L407.466 1882.5L326.135 2119L340.875 2119L464.533 1759.52L535.752 1905.57L639.86 2119L655.4 2119L550.563 1904.07L786.393 1681.52L786.463 1681.45L1071.42 1412.55L1096.22 1466.21L844.373 1870.84L689.887 2119L706.338 2119L1103.25 1481.39L1251 1801.2L1302.37 1912.36L1041.16 2013.35L1040.96 2013.35L767.992 2119L828.3 2119L829.183 2110.3L1037.33 2029.8L1044.26 2119L1058.28 2119L1051.84 2036.24L1148.41 2119L1169.86 2119L1056.98 2022.22L1308.24 1925.03L1350.77 2017.07L1285.08 2119L1301.71 2119L1357.69 2032.03L1397.88 2119L1413.31 2119L1365.15 2014.77L1365.06 2014.6L1318.21 1913.2L1266.1 1800.59L1533 1610.79L1533 1593.65L1260.14 1787.63L1196.53 1649.98L1270.33 1328.37L1460.74 1442.47L1460.98 1442.61L1533 1485.75L1533 1469.47L1471.29 1432.49L1458.32 1067L1444.29 1067L1456.91 1423.94L1269.33 1311.53L1269.2 1311.46L1182.25 1259.39L1270.73 1067L1255.31 1067L1194.49 1199.38L1170.33 1252.15L950.584 1120.5L950.43 1120.4L861.203 1067L834.008 1067L941.397 1131.34L1065.24 1399.17L787.333 1661.46L734.978 1067L720.953 1067L774.374 1673.64L544.153 1890.91L470.957 1740.83L588.543 1398.91C588.537 1398.89 588.537 1398.86 588.543 1398.83L702.72 1067L687.952 1067L582.526 1373.45L493.748 1067L479.19 1067L572.82 1390.2L290.147 1408.83L341.282 1299.77L341.394 1299.53L450.424 1067L434.997 1067L333.442 1283.56L159.63 1067L141.72 1067L144.217 1070.11L-150 1344.11ZM148.971 1444.32L61.2305 1710.54L319.248 1817.9L148.971 1444.32ZM415.853 1858.1L456.806 1739.03L571.923 1404.27L279.431 1423.57L279.095 1423.57L158.48 1431.51L338.196 1825.84L376.681 1841.8L415.853 1858.1ZM1110.48 1463.73L1186.95 1629.24L1257.72 1320.88L1169.84 1268.16L962.758 1144.15L1079.95 1397.72L1080.1 1398.03L1110.48 1463.73Z" fill="white"/>
<path fill-rule="evenodd" clip-rule="evenodd" d="M-150 2893.89L-150 2874.8L152.94 3156.97L326.85 2940.35L274.228 2828.13L-150 2800.16L-150 2786.14L-46.215 2792.98L-150 2668.85L-150 2646.99L-26.9587 2794.27L138.045 2805.14L48.2854 2532.84L-150 2615.33L-150 2600.2L81.8052 2503.75L330.23 2400.4L404.114 2369.66L-41.4325 2119L-12.9337 2119L407.466 2355.5L326.135 2119L340.875 2119L464.533 2478.48L535.752 2332.43L639.86 2119L655.4 2119L550.563 2333.93L786.393 2556.48L786.463 2556.55L1071.42 2825.45L1096.22 2771.79L844.373 2367.16L689.887 2119L706.338 2119L1103.25 2756.61L1251 2436.8L1302.37 2325.64L1041.16 2224.65L1040.96 2224.65L767.992 2119L828.3 2119L829.183 2127.7L1037.33 2208.2L1044.26 2119L1058.28 2119L1051.84 2201.76L1148.41 2119L1169.86 2119L1056.98 2215.78L1308.24 2312.97L1350.77 2220.93L1285.08 2119L1301.71 2119L1357.69 2205.97L1397.88 2119L1413.31 2119L1365.15 2223.23L1365.06 2223.4L1318.21 2324.8L1266.1 2437.41L1533 2627.21L1533 2644.35L1260.14 2450.37L1196.53 2588.02L1270.33 2909.63L1460.74 2795.53L1460.98 2795.39L1533 2752.25L1533 2768.53L1471.29 2805.51L1458.32 3171L1444.29 3171L1456.91 2814.06L1269.33 2926.47L1269.2 2926.54L1182.25 2978.61L1270.73 3171L1255.31 3171L1194.49 3038.62L1170.33 2985.85L950.584 3117.5L950.43 3117.6L861.203 3171L834.008 3171L941.397 3106.66L1065.24 2838.83L787.333 2576.54L734.978 3171L720.953 3171L774.374 2564.36L544.153 2347.09L470.957 2497.17L588.543 2839.09C588.537 2839.11 588.537 2839.14 588.543 2839.17L702.72 3171L687.952 3171L582.526 2864.55L493.748 3171L479.19 3171L572.82 2847.8L290.147 2829.17L341.282 2938.23L341.394 2938.47L450.424 3171L434.997 3171L333.442 2954.44L159.63 3171L141.72 3171L144.217 3167.89L-150 2893.89ZM148.971 2793.68L61.2305 2527.46L319.248 2420.1L148.971 2793.68ZM415.853 2379.9L456.806 2498.97L571.923 2833.73L279.431 2814.43L279.095 2814.43L158.48 2806.49L338.196 2412.16L376.681 2396.2L415.853 2379.9ZM1110.48 2774.27L1186.95 2608.76L1257.72 2917.12L1169.84 2969.84L962.758 3093.85L1079.95 2840.28L1080.1 2839.97L1110.48 2774.27Z" fill="white"/>
</svg>
