<svg width="688" height="462" viewBox="0 0 688 462" fill="none" xmlns="http://www.w3.org/2000/svg">
<line y1="-0.5" x2="157" y2="-0.5" transform="matrix(-4.06488e-08 -1 -1 4.70047e-08 0 462)" stroke="#6D93F8"/>
<line y1="-0.5" x2="62" y2="-0.5" transform="matrix(-1 0 0 1 62 305)" stroke="#6D93F8"/>
<line y1="-0.5" x2="296" y2="-0.5" transform="matrix(-1 0 0 1 296 458)" stroke="#6D93F8"/>
<line x1="687.5" y1="305" x2="687.5" y2="147" stroke="#6D93F8"/>
<line x1="626" y1="146.5" x2="688" y2="146.5" stroke="#6D93F8"/>
<line x1="392" y1="304.5" x2="688" y2="304.5" stroke="#6D93F8"/>
<line y1="-0.5" x2="157" y2="-0.5" transform="matrix(-4.06488e-08 -1 -1 4.70047e-08 0 158)" stroke="#6D93F8"/>
<line y1="-0.5" x2="62" y2="-0.5" transform="matrix(-1 0 0 1 62 1)" stroke="#6D93F8"/>
<line y1="-0.5" x2="296" y2="-0.5" transform="matrix(-1 0 0 1 296 154)" stroke="#6D93F8"/>
</svg>
