<svg width="410" height="733" viewBox="0 0 410 733" fill="none" xmlns="http://www.w3.org/2000/svg">
<path d="M93.1664 249.481L-121.148 192.887L-201.53 272.623L-254.174 258.998L-57.0034 63.2293L-4.46915 77.038L-81.6997 153.709L132.813 210.25L93.1664 249.481Z" fill="white"/>
<path d="M-67.8877 393.436L-129.022 426.599L-229.619 350.637L-273.859 340.7L-205.308 596.536L-155.416 608.986L-210.477 406.855L-150.166 450.08L-102.587 622.51L-51.4627 635.405L-97.8708 463.591L-78.9006 453.344L-52.0089 445.777L2.77982 649.066L53.9171 662.01L-14.0789 408.245L-67.8877 393.436ZM-67.8877 393.436L-129.022 426.599L-229.619 350.637L-273.859 340.7L-205.308 596.536L-155.416 608.986L-210.477 406.855L-150.166 450.08L-102.587 622.51L-51.4627 635.405L-97.8708 463.591L-78.9006 453.344L-52.0089 445.777L2.77982 649.066L53.9171 662.01L-14.0789 408.245L-67.8877 393.436ZM-67.8877 393.436L-129.022 426.599L-229.619 350.637L-273.859 340.7L-205.308 596.536L-155.416 608.986L-210.477 406.855L-150.166 450.08L-102.587 622.51L-51.4627 635.405L-97.8708 463.591L-78.9006 453.344L-52.0089 445.777L2.77982 649.066L53.9171 662.01L-14.0789 408.245L-67.8877 393.436ZM-67.8877 393.436L-129.022 426.599L-229.619 350.637L-273.859 340.7L-205.308 596.536L-155.416 608.986L-210.477 406.855L-150.166 450.08L-102.587 622.51L-51.4627 635.405L-97.8708 463.591L-78.9006 453.344L-52.0089 445.777L2.77982 649.066L53.9171 662.01L-14.0789 408.245L-67.8877 393.436ZM258.649 70.259L-16.1215 4.09605C-34.2959 -0.277495 -53.3706 -0.0185732 -71.5337 4.84823C-89.6969 9.71504 -106.345 19.0281 -119.898 31.903L-324.874 226.613C-339.023 240.076 -349.293 256.942 -354.625 275.472C-359.957 294.002 -360.158 313.526 -355.207 332.029L-286.966 586.709C-281.995 605.199 -272.057 621.995 -258.178 635.367C-244.298 648.739 -226.978 658.204 -208.001 662.787L66.8679 728.924C85.0423 733.297 104.117 733.038 122.28 728.171C140.443 723.305 157.092 713.991 170.645 701.117L375.62 506.406C389.778 492.956 400.059 476.099 405.402 457.575C410.746 439.05 410.957 419.529 406.016 401.025L337.775 146.345C332.809 127.84 322.866 111.029 308.974 97.6483C295.081 84.2681 277.742 74.8037 258.748 70.2325L258.649 70.259ZM103.912 659.819C105.063 664.102 105.041 668.619 103.847 672.92C102.654 677.221 100.332 681.155 97.113 684.328C93.8939 687.501 89.8905 689.802 85.503 691.002C81.1154 692.202 76.4974 692.258 72.1105 691.165L-205.418 622.023C-214.742 619.697 -223.238 614.988 -230.043 608.376C-236.848 601.764 -241.718 593.484 -244.159 584.379L-317.538 310.524L-17.1137 381.896C-2.25867 384.989 11.3893 392.029 22.3381 402.246C33.2868 412.464 41.1148 425.465 44.9661 439.829L103.912 659.819ZM-39.5466 346.802L-305.862 283.331C-305.862 283.331 -300.259 256.01 -281.657 238.065C-264.355 221.396 -94.4155 56.833 -94.4155 56.833C-84.7327 47.4507 -72.7485 40.6695 -59.6453 37.1586C-46.5421 33.6476 -32.7729 33.5281 -19.6962 36.812C-19.6962 36.812 223.936 98.2535 238.345 101.622C245.519 103.453 252.231 106.663 258.094 111.066C263.956 115.47 268.852 120.98 272.496 127.276L79.3195 314.229C63.9008 329.148 44.8664 339.981 24.0482 345.685C3.23003 351.39 -18.6709 351.775 -39.5466 346.802ZM306.145 225.773L133.514 398.081L180.699 574.179L310.752 443.799L294.86 384.489L211.716 467.753L196.379 410.515L322.024 285.034L360.753 429.575C363.13 438.54 363.051 447.99 360.524 456.977C357.996 465.964 353.109 474.175 346.351 480.787L152.661 670.769L83.0776 411.079C80.7128 402.124 80.7946 392.691 83.3151 383.716C85.8355 374.742 90.7067 366.54 97.4435 359.928L291.131 169.74L306.145 225.773ZM-129.022 426.599L-229.619 350.637L-273.859 340.7L-205.308 596.536L-155.416 608.986L-210.477 406.855L-150.166 450.08L-102.587 622.51L-51.4627 635.405L-97.8708 463.591L-78.9006 453.344L-52.0089 445.777L2.77982 649.066L53.9171 662.01L-14.0789 408.245L-67.8383 393.422L-129.022 426.599ZM-67.8877 393.436L-129.022 426.599L-229.619 350.637L-273.859 340.7L-205.308 596.536L-155.416 608.986L-210.477 406.855L-150.166 450.08L-102.587 622.51L-51.4627 635.405L-97.8708 463.591L-78.9006 453.344L-52.0089 445.777L2.77982 649.066L53.9171 662.01L-14.0789 408.245L-67.8877 393.436ZM-67.8877 393.436L-129.022 426.599L-229.619 350.637L-273.859 340.7L-205.308 596.536L-155.416 608.986L-210.477 406.855L-150.166 450.08L-102.587 622.51L-51.4627 635.405L-97.8708 463.591L-78.9006 453.344L-52.0089 445.777L2.77982 649.066L53.9171 662.01L-14.0789 408.245L-67.8877 393.436Z" fill="white"/>
</svg>
