<svg width="396" height="71" viewBox="0 0 396 71" fill="none" xmlns="http://www.w3.org/2000/svg">
<path d="M95.035 37C94.0103 37 93.286 36.788 92.862 36.364C92.4733 35.94 92.279 35.2687 92.279 34.35V3.663C92.279 2.74433 92.491 2.073 92.915 1.649C93.339 1.18967 94.0457 0.96 95.035 0.96H108.073C112.984 0.96 116.606 1.98467 118.938 4.034C121.27 6.08333 122.436 9.13967 122.436 13.203C122.436 18.2557 120.493 21.736 116.606 23.644L121.853 35.039C121.994 35.3217 122.065 35.6043 122.065 35.887C122.065 36.205 121.941 36.47 121.694 36.682C121.482 36.894 121.182 37 120.793 37H113.373C112.843 37 112.419 36.9293 112.101 36.788C111.818 36.6467 111.606 36.3817 111.465 35.993L107.066 25.234H102.985V34.35C102.985 35.2687 102.773 35.94 102.349 36.364C101.925 36.788 101.201 37 100.176 37H95.035ZM106.907 17.655C110.122 17.655 111.73 16.171 111.73 13.203C111.73 10.1997 110.211 8.698 107.172 8.698H102.985V17.655H106.907ZM137.798 37.795C132.957 37.795 129.194 36.5937 126.509 34.191C123.823 31.753 122.481 28.4493 122.481 24.28C122.481 20.1107 123.823 16.8247 126.509 14.422C129.194 11.984 132.957 10.765 137.798 10.765C142.638 10.765 146.401 11.984 149.087 14.422C151.807 16.8247 153.168 20.1107 153.168 24.28C153.168 28.4493 151.807 31.753 149.087 34.191C146.401 36.5937 142.638 37.795 137.798 37.795ZM137.798 30.216C140.907 30.216 142.462 28.2373 142.462 24.28C142.462 20.3933 140.907 18.45 137.798 18.45C134.688 18.45 133.134 20.3933 133.134 24.28C133.134 26.2587 133.54 27.7427 134.353 28.732C135.165 29.7213 136.314 30.216 137.798 30.216ZM166.153 37.795C163.079 37.795 160.676 37 158.945 35.41C157.249 33.7847 156.401 31.3113 156.401 27.99V14.263C156.401 13.3443 156.613 12.673 157.037 12.249C157.461 11.7897 158.167 11.56 159.157 11.56H164.298C165.322 11.56 166.047 11.7897 166.471 12.249C166.895 12.673 167.107 13.3443 167.107 14.263V27.566C167.107 29.58 168.078 30.587 170.022 30.587C171.082 30.587 171.894 30.3043 172.46 29.739C173.025 29.1737 173.308 28.3787 173.308 27.354V14.263C173.308 13.3443 173.52 12.673 173.944 12.249C174.368 11.7897 175.092 11.56 176.117 11.56H181.258C182.282 11.56 183.007 11.7897 183.431 12.249C183.855 12.673 184.067 13.3443 184.067 14.263V35.357C184.067 36.0283 183.943 36.47 183.696 36.682C183.484 36.894 183.007 37 182.265 37H176.806C176.382 37 176.046 36.947 175.799 36.841C175.587 36.735 175.463 36.523 175.428 36.205L175.163 34.562C174.138 35.5513 172.866 36.3463 171.347 36.947C169.827 37.5123 168.096 37.795 166.153 37.795ZM191.409 37C190.385 37 189.66 36.788 189.236 36.364C188.812 35.94 188.6 35.2687 188.6 34.35V13.203C188.6 12.567 188.706 12.143 188.918 11.931C189.166 11.6837 189.66 11.56 190.402 11.56H195.861C196.285 11.56 196.603 11.6307 196.815 11.772C197.063 11.878 197.204 12.09 197.239 12.408L197.504 13.998C198.494 13.0087 199.783 12.2313 201.373 11.666C202.999 11.0653 204.801 10.765 206.779 10.765C209.641 10.765 211.956 11.5777 213.722 13.203C215.489 14.793 216.372 17.1603 216.372 20.305V34.35C216.372 35.2687 216.16 35.94 215.736 36.364C215.348 36.788 214.641 37 213.616 37H208.475C207.451 37 206.709 36.788 206.249 36.364C205.825 35.94 205.613 35.2687 205.613 34.35V20.994C205.613 19.934 205.384 19.1743 204.924 18.715C204.465 18.2557 203.741 18.026 202.751 18.026C201.691 18.026 200.843 18.3087 200.207 18.874C199.607 19.4393 199.306 20.2167 199.306 21.206V34.35C199.306 35.2687 199.094 35.94 198.67 36.364C198.282 36.788 197.575 37 196.55 37H191.409ZM235.477 37.795C230.212 37.795 226.255 36.6467 223.605 34.35C220.955 32.0533 219.63 28.6437 219.63 24.121C219.63 20.0577 220.761 16.8247 223.022 14.422C225.283 11.984 228.481 10.765 232.615 10.765C233.781 10.765 234.912 10.9063 236.007 11.189C237.102 11.4363 237.968 11.772 238.604 12.196V3.663C238.604 2.74433 238.816 2.073 239.24 1.649C239.664 1.18967 240.388 0.96 241.413 0.96H246.342C247.367 0.96 248.091 1.18967 248.515 1.649C248.939 2.073 249.151 2.74433 249.151 3.663V34.032C247.632 35.1273 245.653 36.0283 243.215 36.735C240.777 37.4417 238.198 37.795 235.477 37.795ZM235.795 30.587C236.996 30.587 237.95 30.3927 238.657 30.004V21.471C238.657 19.139 237.403 17.973 234.894 17.973C233.339 17.973 232.173 18.5383 231.396 19.669C230.654 20.7643 230.283 22.266 230.283 24.174C230.283 26.4707 230.742 28.1137 231.661 29.103C232.58 30.0923 233.958 30.587 235.795 30.587ZM273.962 37C272.937 37 272.213 36.788 271.789 36.364C271.4 35.94 271.206 35.2687 271.206 34.35V3.663C271.206 2.74433 271.418 2.073 271.842 1.649C272.266 1.18967 272.972 0.96 273.962 0.96H287C291.911 0.96 295.533 1.98467 297.865 4.034C300.197 6.08333 301.363 9.13967 301.363 13.203C301.363 18.2557 299.419 21.736 295.533 23.644L300.78 35.039C300.921 35.3217 300.992 35.6043 300.992 35.887C300.992 36.205 300.868 36.47 300.621 36.682C300.409 36.894 300.108 37 299.72 37H292.3C291.77 37 291.346 36.9293 291.028 36.788C290.745 36.6467 290.533 36.3817 290.392 35.993L285.993 25.234H281.912V34.35C281.912 35.2687 281.7 35.94 281.276 36.364C280.852 36.788 280.127 37 279.103 37H273.962ZM285.834 17.655C289.049 17.655 290.657 16.171 290.657 13.203C290.657 10.1997 289.137 8.698 286.099 8.698H281.912V17.655H285.834ZM316.724 37.795C311.884 37.795 308.121 36.5937 305.435 34.191C302.75 31.753 301.407 28.4493 301.407 24.28C301.407 20.1107 302.75 16.8247 305.435 14.422C308.121 11.984 311.884 10.765 316.724 10.765C321.565 10.765 325.328 11.984 328.013 14.422C330.734 16.8247 332.094 20.1107 332.094 24.28C332.094 28.4493 330.734 31.753 328.013 34.191C325.328 36.5937 321.565 37.795 316.724 37.795ZM316.724 30.216C319.834 30.216 321.388 28.2373 321.388 24.28C321.388 20.3933 319.834 18.45 316.724 18.45C313.615 18.45 312.06 20.3933 312.06 24.28C312.06 26.2587 312.467 27.7427 313.279 28.732C314.092 29.7213 315.24 30.216 316.724 30.216ZM348.663 37.795C343.716 37.795 339.9 36.6467 337.215 34.35C334.529 32.0533 333.187 28.7143 333.187 24.333C333.187 21.6477 333.805 19.2803 335.042 17.231C336.278 15.1817 338.063 13.5917 340.395 12.461C342.762 11.3303 345.553 10.765 348.769 10.765C351.207 10.765 353.256 10.9947 354.917 11.454C356.613 11.9133 358.114 12.62 359.422 13.574C359.81 13.8213 360.005 14.1393 360.005 14.528C360.005 14.8107 359.863 15.1817 359.581 15.641L357.408 19.404C357.16 19.8987 356.86 20.146 356.507 20.146C356.295 20.146 355.959 20.0047 355.5 19.722C354.546 19.1213 353.645 18.6797 352.797 18.397C351.984 18.1143 350.959 17.973 349.723 17.973C347.956 17.973 346.525 18.5383 345.43 19.669C344.37 20.7997 343.84 22.3543 343.84 24.333C343.84 26.347 344.387 27.9017 345.483 28.997C346.578 30.057 348.08 30.587 349.988 30.587C351.118 30.587 352.143 30.428 353.062 30.11C353.98 29.792 354.917 29.3503 355.871 28.785C356.365 28.5023 356.719 28.361 356.931 28.361C357.249 28.361 357.531 28.6083 357.779 29.103L360.164 33.184C360.34 33.5373 360.429 33.82 360.429 34.032C360.429 34.35 360.217 34.6503 359.793 34.933C358.309 35.887 356.683 36.5937 354.917 37.053C353.185 37.5477 351.101 37.795 348.663 37.795ZM392.682 34.986C392.929 35.2687 393.053 35.5867 393.053 35.94C393.053 36.258 392.947 36.523 392.735 36.735C392.523 36.9117 392.24 37 391.887 37H383.672C383.177 37 382.806 36.9647 382.559 36.894C382.347 36.788 382.117 36.5937 381.87 36.311L374.662 26.506V34.35C374.662 35.2687 374.45 35.94 374.026 36.364C373.602 36.788 372.877 37 371.853 37H366.712C365.687 37 364.963 36.788 364.539 36.364C364.15 35.94 363.956 35.2687 363.956 34.35V3.663C363.956 2.74433 364.168 2.073 364.592 1.649C365.016 1.18967 365.722 0.96 366.712 0.96H371.853C372.877 0.96 373.602 1.18967 374.026 1.649C374.45 2.073 374.662 2.74433 374.662 3.663V21.418L381.658 12.302C381.87 12.0193 382.099 11.825 382.347 11.719C382.594 11.613 382.965 11.56 383.46 11.56H391.675C392.028 11.56 392.293 11.666 392.47 11.878C392.682 12.0547 392.788 12.302 392.788 12.62C392.788 12.9733 392.664 13.2913 392.417 13.574L383.354 23.962L392.682 34.986ZM100.719 66.405C97.515 66.405 95.031 65.595 93.267 63.975C91.503 62.337 90.621 59.952 90.621 56.82C90.621 53.67 91.476 51.285 93.186 49.665C94.914 48.045 97.371 47.235 100.557 47.235C101.943 47.235 103.194 47.379 104.31 47.667C105.426 47.937 106.362 48.324 107.118 48.828C107.316 48.954 107.415 49.116 107.415 49.314C107.415 49.44 107.352 49.629 107.226 49.881L106.065 51.852C105.957 52.086 105.813 52.203 105.633 52.203C105.525 52.203 105.345 52.14 105.093 52.014C104.013 51.42 102.744 51.123 101.286 51.123C99.612 51.123 98.316 51.609 97.398 52.581C96.498 53.535 96.048 54.948 96.048 56.82C96.048 58.692 96.534 60.114 97.506 61.086C98.478 62.058 99.801 62.544 101.475 62.544C102.951 62.544 104.256 62.247 105.39 61.653C105.642 61.527 105.822 61.464 105.93 61.464C106.092 61.464 106.236 61.572 106.362 61.788L107.577 63.867C107.685 64.047 107.739 64.209 107.739 64.353C107.739 64.515 107.631 64.677 107.415 64.839C105.903 65.883 103.671 66.405 100.719 66.405ZM114.94 66C114.418 66 114.049 65.892 113.833 65.676C113.635 65.46 113.536 65.118 113.536 64.65V49.017C113.536 48.549 113.644 48.207 113.86 47.991C114.076 47.757 114.436 47.64 114.94 47.64H117.559C118.081 47.64 118.45 47.757 118.666 47.991C118.882 48.207 118.99 48.549 118.99 49.017V64.65C118.99 65.118 118.882 65.46 118.666 65.676C118.45 65.892 118.081 66 117.559 66H114.94ZM132.682 66.405C131.17 66.405 129.82 66.153 128.632 65.649C127.462 65.145 126.535 64.389 125.851 63.381C125.167 62.373 124.825 61.14 124.825 59.682C124.825 57.396 125.473 55.65 126.769 54.444C128.065 53.238 129.928 52.635 132.358 52.635C134.734 52.635 136.534 53.229 137.758 54.417C139 55.587 139.621 57.216 139.621 59.304C139.621 60.204 139.225 60.654 138.433 60.654H129.955C129.955 61.428 130.243 62.022 130.819 62.436C131.413 62.85 132.304 63.057 133.492 63.057C134.23 63.057 134.842 62.994 135.328 62.868C135.832 62.724 136.336 62.517 136.84 62.247C137.056 62.157 137.2 62.112 137.272 62.112C137.434 62.112 137.569 62.22 137.677 62.436L138.595 64.164C138.685 64.344 138.73 64.479 138.73 64.569C138.73 64.731 138.622 64.884 138.406 65.028C137.668 65.514 136.831 65.865 135.895 66.081C134.959 66.297 133.888 66.405 132.682 66.405ZM134.761 57.981C134.761 57.297 134.563 56.766 134.167 56.388C133.771 56.01 133.177 55.821 132.385 55.821C131.593 55.821 130.99 56.019 130.576 56.415C130.162 56.793 129.955 57.315 129.955 57.981H134.761ZM150.495 66.405C148.803 66.405 147.444 65.865 146.418 64.785C145.41 63.687 144.906 62.148 144.906 60.168C144.906 58.656 145.248 57.333 145.932 56.199C146.634 55.065 147.615 54.192 148.875 53.58C150.153 52.95 151.62 52.635 153.276 52.635C154.644 52.635 155.85 52.788 156.894 53.094C157.956 53.382 158.928 53.805 159.81 54.363V65.163C159.81 65.505 159.747 65.73 159.621 65.838C159.495 65.946 159.243 66 158.865 66H156.111C155.913 66 155.76 65.973 155.652 65.919C155.544 65.847 155.454 65.739 155.382 65.595L155.031 64.785C154.509 65.343 153.879 65.748 153.141 66C152.421 66.27 151.539 66.405 150.495 66.405ZM152.52 62.733C153.222 62.733 153.771 62.562 154.167 62.22C154.563 61.878 154.761 61.392 154.761 60.762V56.55C154.419 56.388 153.987 56.307 153.465 56.307C152.511 56.307 151.746 56.64 151.17 57.306C150.612 57.972 150.333 58.908 150.333 60.114C150.333 61.86 151.062 62.733 152.52 62.733ZM167.617 66C167.095 66 166.726 65.892 166.51 65.676C166.294 65.46 166.186 65.118 166.186 64.65V53.877C166.186 53.553 166.24 53.337 166.348 53.229C166.474 53.103 166.726 53.04 167.104 53.04H169.885C170.101 53.04 170.263 53.076 170.371 53.148C170.497 53.202 170.569 53.31 170.587 53.472L170.722 54.282C171.226 53.778 171.883 53.382 172.693 53.094C173.521 52.788 174.439 52.635 175.447 52.635C176.905 52.635 178.084 53.049 178.984 53.877C179.884 54.687 180.334 55.893 180.334 57.495V64.65C180.334 65.118 180.226 65.46 180.01 65.676C179.812 65.892 179.452 66 178.93 66H176.311C175.789 66 175.411 65.892 175.177 65.676C174.961 65.46 174.853 65.118 174.853 64.65V57.846C174.853 57.306 174.736 56.919 174.502 56.685C174.268 56.451 173.899 56.334 173.395 56.334C172.855 56.334 172.423 56.478 172.099 56.766C171.793 57.054 171.64 57.45 171.64 57.954V64.65C171.64 65.118 171.532 65.46 171.316 65.676C171.118 65.892 170.758 66 170.236 66H167.617ZM188.474 51.663C187.862 51.663 187.394 51.501 187.07 51.177C186.746 50.835 186.584 50.439 186.584 49.989V49.341C186.584 48.873 186.746 48.477 187.07 48.153C187.394 47.811 187.862 47.64 188.474 47.64H190.418C191.048 47.64 191.525 47.811 191.849 48.153C192.173 48.477 192.335 48.873 192.335 49.341V49.989C192.335 50.439 192.173 50.835 191.849 51.177C191.525 51.501 191.048 51.663 190.418 51.663H188.474ZM188.15 66C187.628 66 187.259 65.892 187.043 65.676C186.827 65.46 186.719 65.118 186.719 64.65V54.417C186.719 53.949 186.827 53.607 187.043 53.391C187.259 53.157 187.628 53.04 188.15 53.04H190.742C191.264 53.04 191.633 53.157 191.849 53.391C192.083 53.607 192.2 53.949 192.2 54.417V64.65C192.2 65.118 192.083 65.46 191.849 65.676C191.633 65.892 191.264 66 190.742 66H188.15ZM200.133 66C199.611 66 199.242 65.892 199.026 65.676C198.81 65.46 198.702 65.118 198.702 64.65V53.877C198.702 53.553 198.756 53.337 198.864 53.229C198.99 53.103 199.242 53.04 199.62 53.04H202.401C202.617 53.04 202.779 53.076 202.887 53.148C203.013 53.202 203.085 53.31 203.103 53.472L203.238 54.282C203.742 53.778 204.399 53.382 205.209 53.094C206.037 52.788 206.955 52.635 207.963 52.635C209.421 52.635 210.6 53.049 211.5 53.877C212.4 54.687 212.85 55.893 212.85 57.495V64.65C212.85 65.118 212.742 65.46 212.526 65.676C212.328 65.892 211.968 66 211.446 66H208.827C208.305 66 207.927 65.892 207.693 65.676C207.477 65.46 207.369 65.118 207.369 64.65V57.846C207.369 57.306 207.252 56.919 207.018 56.685C206.784 56.451 206.415 56.334 205.911 56.334C205.371 56.334 204.939 56.478 204.615 56.766C204.309 57.054 204.156 57.45 204.156 57.954V64.65C204.156 65.118 204.048 65.46 203.832 65.676C203.634 65.892 203.274 66 202.752 66H200.133ZM226.201 70.59C225.121 70.59 224.014 70.464 222.88 70.212C221.764 69.978 220.936 69.672 220.396 69.294C220.27 69.186 220.207 69.069 220.207 68.943C220.207 68.853 220.234 68.763 220.288 68.673L221.449 66.54C221.503 66.45 221.557 66.369 221.611 66.297C221.683 66.243 221.755 66.216 221.827 66.216C221.863 66.216 221.971 66.252 222.151 66.324C222.997 66.756 224.167 66.972 225.661 66.972C226.507 66.972 227.146 66.792 227.578 66.432C228.01 66.072 228.226 65.487 228.226 64.677C227.866 64.929 227.416 65.136 226.876 65.298C226.336 65.442 225.76 65.514 225.148 65.514C223.006 65.514 221.368 64.983 220.234 63.921C219.118 62.859 218.56 61.32 218.56 59.304C218.56 57.108 219.244 55.452 220.612 54.336C221.98 53.202 224.005 52.635 226.687 52.635C228.037 52.635 229.324 52.824 230.548 53.202C231.772 53.58 232.789 54.057 233.599 54.633V63.246C233.599 65.442 232.969 67.215 231.709 68.565C230.449 69.915 228.613 70.59 226.201 70.59ZM226.336 61.707C227.632 61.707 228.28 61.086 228.28 59.844V56.577C227.902 56.415 227.272 56.334 226.39 56.334C225.598 56.334 224.995 56.532 224.581 56.928C224.185 57.324 223.987 58.035 223.987 59.061C223.987 59.979 224.176 60.654 224.554 61.086C224.932 61.5 225.526 61.707 226.336 61.707ZM260.413 66.405C258.901 66.405 257.47 66.252 256.12 65.946C254.77 65.622 253.681 65.172 252.853 64.596C252.547 64.398 252.394 64.191 252.394 63.975C252.394 63.831 252.448 63.678 252.556 63.516L253.879 61.41C254.023 61.194 254.167 61.086 254.311 61.086C254.401 61.086 254.554 61.149 254.77 61.275C255.436 61.653 256.192 61.959 257.038 62.193C257.884 62.427 258.721 62.544 259.549 62.544C260.395 62.544 261.016 62.418 261.412 62.166C261.826 61.914 262.033 61.509 262.033 60.951C262.033 60.411 261.808 59.988 261.358 59.682C260.926 59.376 260.107 58.989 258.901 58.521C257.083 57.837 255.661 57.072 254.635 56.226C253.627 55.362 253.123 54.192 253.123 52.716C253.123 50.934 253.762 49.575 255.04 48.639C256.318 47.703 258.019 47.235 260.143 47.235C261.619 47.235 262.879 47.37 263.923 47.64C264.985 47.892 265.885 48.288 266.623 48.828C266.929 49.062 267.082 49.278 267.082 49.476C267.082 49.602 267.028 49.746 266.92 49.908L265.597 52.014C265.435 52.23 265.291 52.338 265.165 52.338C265.075 52.338 264.922 52.275 264.706 52.149C263.662 51.465 262.42 51.123 260.98 51.123C260.206 51.123 259.612 51.249 259.198 51.501C258.784 51.753 258.577 52.167 258.577 52.743C258.577 53.139 258.685 53.463 258.901 53.715C259.117 53.967 259.405 54.192 259.765 54.39C260.143 54.57 260.719 54.804 261.493 55.092L262.006 55.281C263.338 55.803 264.382 56.307 265.138 56.793C265.912 57.261 266.497 57.846 266.893 58.548C267.289 59.232 267.487 60.096 267.487 61.14C267.487 62.742 266.884 64.02 265.678 64.974C264.49 65.928 262.735 66.405 260.413 66.405ZM280.649 66.405C279.137 66.405 277.787 66.153 276.599 65.649C275.429 65.145 274.502 64.389 273.818 63.381C273.134 62.373 272.792 61.14 272.792 59.682C272.792 57.396 273.44 55.65 274.736 54.444C276.032 53.238 277.895 52.635 280.325 52.635C282.701 52.635 284.501 53.229 285.725 54.417C286.967 55.587 287.588 57.216 287.588 59.304C287.588 60.204 287.192 60.654 286.4 60.654H277.922C277.922 61.428 278.21 62.022 278.786 62.436C279.38 62.85 280.271 63.057 281.459 63.057C282.197 63.057 282.809 62.994 283.295 62.868C283.799 62.724 284.303 62.517 284.807 62.247C285.023 62.157 285.167 62.112 285.239 62.112C285.401 62.112 285.536 62.22 285.644 62.436L286.562 64.164C286.652 64.344 286.697 64.479 286.697 64.569C286.697 64.731 286.589 64.884 286.373 65.028C285.635 65.514 284.798 65.865 283.862 66.081C282.926 66.297 281.855 66.405 280.649 66.405ZM282.728 57.981C282.728 57.297 282.53 56.766 282.134 56.388C281.738 56.01 281.144 55.821 280.352 55.821C279.56 55.821 278.957 56.019 278.543 56.415C278.129 56.793 277.922 57.315 277.922 57.981H282.728ZM294.844 66C294.322 66 293.953 65.892 293.737 65.676C293.521 65.46 293.413 65.118 293.413 64.65V53.877C293.413 53.553 293.467 53.337 293.575 53.229C293.701 53.103 293.953 53.04 294.331 53.04H297.112C297.328 53.04 297.49 53.076 297.598 53.148C297.724 53.202 297.796 53.31 297.814 53.472L297.949 54.255C299.029 53.175 300.334 52.635 301.864 52.635C302.458 52.635 302.944 52.689 303.322 52.797C303.7 52.887 304.042 53.04 304.348 53.256C304.528 53.382 304.618 53.526 304.618 53.688C304.618 53.742 304.6 53.841 304.564 53.985L303.7 56.442C303.628 56.694 303.493 56.82 303.295 56.82C303.205 56.82 303.097 56.784 302.971 56.712C302.485 56.442 301.9 56.307 301.216 56.307C300.532 56.307 299.965 56.496 299.515 56.874C299.083 57.252 298.867 57.756 298.867 58.386V64.65C298.867 65.118 298.759 65.46 298.543 65.676C298.345 65.892 297.985 66 297.463 66H294.844ZM315.983 66C315.641 66 315.38 65.937 315.2 65.811C315.038 65.685 314.876 65.451 314.714 65.109L309.503 54.066C309.413 53.886 309.368 53.724 309.368 53.58C309.368 53.418 309.413 53.292 309.503 53.202C309.611 53.094 309.755 53.04 309.935 53.04H313.877C314.147 53.04 314.354 53.094 314.498 53.202C314.642 53.31 314.759 53.481 314.849 53.715L317.171 59.871L319.493 53.715C319.583 53.481 319.7 53.31 319.844 53.202C319.988 53.094 320.195 53.04 320.465 53.04H324.434C324.614 53.04 324.749 53.094 324.839 53.202C324.947 53.292 325.001 53.418 325.001 53.58C325.001 53.724 324.956 53.886 324.866 54.066L319.655 65.109C319.493 65.451 319.322 65.685 319.142 65.811C318.98 65.937 318.728 66 318.386 66H315.983ZM332.723 51.663C332.111 51.663 331.643 51.501 331.319 51.177C330.995 50.835 330.833 50.439 330.833 49.989V49.341C330.833 48.873 330.995 48.477 331.319 48.153C331.643 47.811 332.111 47.64 332.723 47.64H334.667C335.297 47.64 335.774 47.811 336.098 48.153C336.422 48.477 336.584 48.873 336.584 49.341V49.989C336.584 50.439 336.422 50.835 336.098 51.177C335.774 51.501 335.297 51.663 334.667 51.663H332.723ZM332.399 66C331.877 66 331.508 65.892 331.292 65.676C331.076 65.46 330.968 65.118 330.968 64.65V54.417C330.968 53.949 331.076 53.607 331.292 53.391C331.508 53.157 331.877 53.04 332.399 53.04H334.991C335.513 53.04 335.882 53.157 336.098 53.391C336.332 53.607 336.449 53.949 336.449 54.417V64.65C336.449 65.118 336.332 65.46 336.098 65.676C335.882 65.892 335.513 66 334.991 66H332.399ZM350.296 66.405C347.776 66.405 345.832 65.82 344.464 64.65C343.096 63.48 342.412 61.779 342.412 59.547C342.412 58.179 342.727 56.973 343.357 55.929C343.987 54.885 344.896 54.075 346.084 53.499C347.29 52.923 348.712 52.635 350.35 52.635C351.592 52.635 352.636 52.752 353.482 52.986C354.346 53.22 355.111 53.58 355.777 54.066C355.975 54.192 356.074 54.354 356.074 54.552C356.074 54.696 356.002 54.885 355.858 55.119L354.751 57.036C354.625 57.288 354.472 57.414 354.292 57.414C354.184 57.414 354.013 57.342 353.779 57.198C353.293 56.892 352.834 56.667 352.402 56.523C351.988 56.379 351.466 56.307 350.836 56.307C349.936 56.307 349.207 56.595 348.649 57.171C348.109 57.747 347.839 58.539 347.839 59.547C347.839 60.573 348.118 61.365 348.676 61.923C349.234 62.463 349.999 62.733 350.971 62.733C351.547 62.733 352.069 62.652 352.537 62.49C353.005 62.328 353.482 62.103 353.968 61.815C354.22 61.671 354.4 61.599 354.508 61.599C354.67 61.599 354.814 61.725 354.94 61.977L356.155 64.056C356.245 64.236 356.29 64.38 356.29 64.488C356.29 64.65 356.182 64.803 355.966 64.947C355.21 65.433 354.382 65.793 353.482 66.027C352.6 66.279 351.538 66.405 350.296 66.405ZM369.454 66.405C367.942 66.405 366.592 66.153 365.404 65.649C364.234 65.145 363.307 64.389 362.623 63.381C361.939 62.373 361.597 61.14 361.597 59.682C361.597 57.396 362.245 55.65 363.541 54.444C364.837 53.238 366.7 52.635 369.13 52.635C371.506 52.635 373.306 53.229 374.53 54.417C375.772 55.587 376.393 57.216 376.393 59.304C376.393 60.204 375.997 60.654 375.205 60.654H366.727C366.727 61.428 367.015 62.022 367.591 62.436C368.185 62.85 369.076 63.057 370.264 63.057C371.002 63.057 371.614 62.994 372.1 62.868C372.604 62.724 373.108 62.517 373.612 62.247C373.828 62.157 373.972 62.112 374.044 62.112C374.206 62.112 374.341 62.22 374.449 62.436L375.367 64.164C375.457 64.344 375.502 64.479 375.502 64.569C375.502 64.731 375.394 64.884 375.178 65.028C374.44 65.514 373.603 65.865 372.667 66.081C371.731 66.297 370.66 66.405 369.454 66.405ZM371.533 57.981C371.533 57.297 371.335 56.766 370.939 56.388C370.543 56.01 369.949 55.821 369.157 55.821C368.365 55.821 367.762 56.019 367.348 56.415C366.934 56.793 366.727 57.315 366.727 57.981H371.533ZM388.482 66.405C385.944 66.405 383.847 65.937 382.191 65.001C381.849 64.785 381.678 64.596 381.678 64.434C381.678 64.344 381.723 64.209 381.813 64.029L382.947 62.004C383.055 61.788 383.19 61.68 383.352 61.68C383.46 61.68 383.613 61.734 383.811 61.842C384.315 62.112 384.954 62.364 385.728 62.598C386.52 62.814 387.222 62.922 387.834 62.922C388.41 62.922 388.824 62.868 389.076 62.76C389.328 62.634 389.454 62.436 389.454 62.166C389.454 61.914 389.274 61.707 388.914 61.545C388.572 61.365 387.942 61.14 387.024 60.87L386.43 60.708C384.936 60.258 383.856 59.745 383.19 59.169C382.524 58.593 382.191 57.774 382.191 56.712C382.191 55.398 382.758 54.39 383.892 53.688C385.026 52.986 386.547 52.635 388.455 52.635C389.643 52.635 390.678 52.743 391.56 52.959C392.442 53.175 393.288 53.499 394.098 53.931C394.422 54.111 394.584 54.309 394.584 54.525C394.584 54.651 394.53 54.813 394.422 55.011L393.315 56.766C393.189 56.964 393.063 57.063 392.937 57.063C392.829 57.063 392.685 57.009 392.505 56.901C392.073 56.667 391.569 56.478 390.993 56.334C390.417 56.19 389.859 56.118 389.319 56.118C388.077 56.118 387.456 56.388 387.456 56.928C387.456 57.18 387.654 57.396 388.05 57.576C388.464 57.738 389.094 57.918 389.94 58.116C390.138 58.17 390.408 58.242 390.75 58.332C391.11 58.422 391.407 58.512 391.641 58.602C392.505 58.908 393.171 59.223 393.639 59.547C394.107 59.853 394.44 60.222 394.638 60.654C394.836 61.068 394.935 61.599 394.935 62.247C394.935 63.021 394.701 63.723 394.233 64.353C393.765 64.965 393.045 65.46 392.073 65.838C391.101 66.216 389.904 66.405 388.482 66.405Z" fill="#2E8CAD"/>
<g clip-path="url(#clip0_6_9)">
<path d="M26.4445 58.2038H21.5159V50.7617H48.4861V58.2038H43.5549C43.3085 58.2038 43.0722 58.3015 42.898 58.4754C42.7237 58.6494 42.6258 58.8853 42.6258 59.1312C42.6258 59.3772 42.7237 59.6131 42.898 59.7871C43.0722 59.961 43.3085 60.0587 43.5549 60.0587H48.5202C49.0031 60.058 49.466 59.8662 49.8075 59.5254C50.1489 59.1845 50.341 58.7224 50.3417 58.2404V50.7317C50.341 50.2496 50.1489 49.7875 49.8075 49.4467C49.466 49.1058 49.0031 48.914 48.5202 48.9133H21.4805C20.9975 48.9137 20.5344 49.1054 20.1929 49.4463C19.8514 49.7872 19.6593 50.2495 19.659 50.7317V58.2404C19.6597 58.7224 19.8518 59.1845 20.1933 59.5254C20.5347 59.8662 20.9976 60.058 21.4805 60.0587H26.4445C26.6909 60.0587 26.9272 59.961 27.1015 59.7871C27.2757 59.6131 27.3736 59.3772 27.3736 59.1312C27.3736 58.8853 27.2757 58.6494 27.1015 58.4754C26.9272 58.3015 26.6909 58.2038 26.4445 58.2038Z" fill="#2E8CAD"/>
<path d="M47.6554 52.7279C47.6554 52.6669 47.6434 52.6066 47.62 52.5503C47.5966 52.4941 47.5623 52.443 47.5191 52.3999C47.4759 52.3569 47.4246 52.3228 47.3681 52.2996C47.3117 52.2764 47.2512 52.2646 47.1902 52.2648H22.8159C22.6929 52.2648 22.5749 52.3136 22.4879 52.4004C22.4009 52.4872 22.3521 52.605 22.3521 52.7279C22.3521 52.8507 22.4009 52.9685 22.4879 53.0553C22.5749 53.1421 22.6929 53.1909 22.8159 53.1909H47.1902C47.2512 53.1911 47.3117 53.1793 47.3681 53.1561C47.4246 53.1329 47.4759 53.0988 47.5191 53.0558C47.5623 53.0127 47.5966 52.9616 47.62 52.9054C47.6434 52.8491 47.6554 52.7888 47.6554 52.7279Z" fill="#2E8CAD"/>
<path d="M16.2037 45.4612C16.0822 45.4725 15.9642 45.5076 15.8564 45.5645C15.7485 45.6214 15.653 45.699 15.5752 45.7928C15.4974 45.8866 15.4389 45.9948 15.4031 46.1112C15.3672 46.2276 15.3547 46.3499 15.3663 46.4711L16.3806 57.2554C16.4024 57.485 16.5091 57.6983 16.68 57.8535C16.8508 58.0088 17.0734 58.095 17.3044 58.0953H17.3922C17.6374 58.0721 17.8633 57.9527 18.0203 57.7633C18.1773 57.5739 18.2526 57.3301 18.2296 57.0854L17.2153 46.2997C17.2041 46.1783 17.1691 46.0603 17.1122 45.9524C17.0553 45.8446 16.9776 45.7489 16.8837 45.6711C16.7897 45.5932 16.6813 45.5346 16.5646 45.4985C16.4479 45.4625 16.3253 45.4498 16.2037 45.4612Z" fill="#2E8CAD"/>
<path d="M14.3651 32.6466C14.2782 32.7422 14.2122 32.8549 14.1714 32.9774C14.1305 33.0999 14.1157 33.2296 14.1279 33.3582L14.7962 40.4405C14.833 40.6736 14.9575 40.884 15.1442 41.0287C15.331 41.1735 15.566 41.2417 15.8013 41.2195C16.0367 41.1973 16.2548 41.0864 16.4111 40.9094C16.5674 40.7323 16.6502 40.5024 16.6427 40.2665L16.07 34.198H53.9287L51.7626 57.0814C51.7396 57.3261 51.8149 57.57 51.9719 57.7593C52.1289 57.9487 52.3548 58.0681 52.5999 58.0913C52.6288 58.0913 52.6589 58.0913 52.6877 58.0913C52.9176 58.0894 53.1387 58.0025 53.3081 57.8474C53.4775 57.6922 53.5833 57.4799 53.605 57.2515L55.8616 33.3543C55.8737 33.2257 55.8587 33.0961 55.8177 32.9737C55.7767 32.8513 55.7105 32.7388 55.6234 32.6433C55.5363 32.5479 55.4302 32.4717 55.312 32.4195C55.1937 32.3674 55.0658 32.3404 54.9365 32.3405H15.0518C14.9223 32.341 14.7943 32.3685 14.6761 32.4212C14.5578 32.4739 14.4519 32.5506 14.3651 32.6466Z" fill="#2E8CAD"/>
<path d="M20.7419 39.4973C20.6324 39.5443 20.5452 39.6315 20.4982 39.7408C20.4512 39.8502 20.4481 39.9734 20.4895 40.085C20.5308 40.1966 20.6135 40.2881 20.7205 40.3406C20.8274 40.3931 20.9505 40.4026 21.0643 40.3672C21.4557 40.2201 21.7935 39.9585 22.0334 39.6165C22.2734 39.2745 22.4042 38.8682 22.4088 38.4507C22.4107 38.1803 22.3592 37.9122 22.2573 37.6617C22.1554 37.4111 22.0051 37.1831 21.8149 36.9906C21.6247 36.798 21.3984 36.6448 21.1488 36.5395C20.8993 36.4343 20.6315 36.3792 20.3606 36.3773H20.3462C19.8017 36.378 19.2795 36.5931 18.893 36.976C18.5066 37.3588 18.2871 37.8785 18.2822 38.422C18.2819 38.5448 18.3302 38.6628 18.4165 38.7503C18.5029 38.8377 18.6205 38.8876 18.7435 38.889C18.866 38.8886 18.9834 38.8401 19.0702 38.7539C19.1571 38.6677 19.2064 38.5508 19.2074 38.4285C19.2102 38.1297 19.3309 37.8441 19.5434 37.6337C19.7559 37.4233 20.043 37.3051 20.3422 37.3048H20.3501C20.6509 37.3069 20.9385 37.428 21.1498 37.6417C21.3611 37.8553 21.4788 38.144 21.4771 38.4442C21.4747 38.6731 21.4033 38.8961 21.2722 39.0839C21.1411 39.2717 20.9563 39.4158 20.7419 39.4973Z" fill="#2E8CAD"/>
<path d="M15.2928 29.9177C15.2311 30.1557 15.2665 30.4084 15.3913 30.6204C15.5161 30.8323 15.7202 30.9861 15.9585 31.0479C16.0352 31.0675 16.114 31.0776 16.1931 31.078C16.3986 31.0777 16.5982 31.0093 16.7606 30.8836C16.9231 30.7579 17.0391 30.582 17.0907 30.3834C17.2771 29.6704 17.6218 29.0083 18.0994 28.4464C18.577 27.8845 19.1752 27.4371 19.8496 27.1374C20.524 26.8377 21.2574 26.6935 21.9953 26.7153C22.7331 26.7371 23.4566 26.9245 24.1121 27.2635C24.2715 27.3575 24.4554 27.4017 24.6402 27.3905C24.8249 27.3793 25.0021 27.3132 25.149 27.2007C25.2958 27.0881 25.4056 26.9343 25.4641 26.759C25.5227 26.5837 25.5274 26.3949 25.4776 26.217C25.3669 25.7516 25.3633 25.2673 25.467 24.8003C25.5708 24.3334 25.7791 23.896 26.0765 23.5209C26.3739 23.1459 26.7525 22.843 27.184 22.635C27.6154 22.427 28.0885 22.3193 28.5676 22.32C29.0645 22.3178 29.5549 22.4335 29.9982 22.6575C30.4416 22.8815 30.8253 23.2075 31.1177 23.6085C31.2233 23.7484 31.3663 23.8555 31.5302 23.9176C31.6942 23.9798 31.8724 23.9943 32.0443 23.9595C32.2162 23.9248 32.3747 23.8422 32.5016 23.7213C32.6284 23.6003 32.7183 23.4461 32.761 23.2763C32.8718 22.8118 33.1019 22.3841 33.4287 22.0355C33.7555 21.6868 34.1676 21.4292 34.6245 21.2881C35.0815 21.1469 35.5673 21.1271 36.0343 21.2305C36.5012 21.3339 36.9331 21.557 37.2873 21.8778C37.3911 21.9714 37.5147 22.0404 37.6489 22.0796C37.7831 22.1188 37.9244 22.1273 38.0623 22.1044C38.2003 22.0815 38.3312 22.0279 38.4455 21.9474C38.5598 21.867 38.6544 21.7618 38.7222 21.6398C39.4029 20.42 40.5337 19.5137 41.8739 19.1139C43.2141 18.7141 44.6576 18.8525 45.8971 19.4995C47.1366 20.1466 48.074 21.2512 48.5096 22.578C48.9453 23.9048 48.8448 25.3489 48.2295 26.6029C48.1598 26.7444 48.1273 26.9013 48.1352 27.0587C48.1432 27.2162 48.1911 27.3691 48.2747 27.5029C48.3582 27.6367 48.4746 27.7471 48.6128 27.8235C48.7509 27.9 48.9063 27.94 49.0643 27.9398C49.1439 27.9397 49.2233 27.9292 49.3002 27.9084C49.5633 27.84 49.8341 27.8052 50.1061 27.8051C50.8369 27.8061 51.5449 28.0589 52.1105 28.5208C52.6762 28.9827 53.0647 29.6254 53.2105 30.3402C53.2592 30.5812 53.4017 30.793 53.6068 30.929C53.8119 31.065 54.0627 31.1142 54.3041 31.0656C54.5455 31.017 54.7576 30.8747 54.8939 30.67C55.0302 30.4653 55.0794 30.2149 55.0307 29.974C54.8102 28.8946 54.2404 27.9175 53.409 27.193C52.5777 26.4686 51.5309 26.0369 50.4298 25.9645C50.8304 24.3528 50.6614 22.6524 49.9514 21.1506C49.2414 19.6488 48.0339 18.4377 46.5328 17.7219C45.0318 17.0061 43.3292 16.8294 41.7128 17.2217C40.0963 17.614 38.6651 18.5512 37.6608 19.8751C36.6319 19.3122 35.427 19.1611 34.2907 19.4527C33.1544 19.7442 32.1718 20.4565 31.5423 21.4449C30.8226 20.9119 29.9731 20.5809 29.082 20.4865C28.1908 20.392 27.2906 20.5374 26.4748 20.9076C25.659 21.2778 24.9574 21.8593 24.4428 22.5917C23.9283 23.324 23.6195 24.1806 23.5486 25.0723C22.9921 24.929 22.4198 24.856 21.845 24.8552C20.3455 24.8556 18.8885 25.353 17.7027 26.2692C16.5168 27.1855 15.6692 28.4687 15.2928 29.9177Z" fill="#2E8CAD"/>
<path d="M22.558 21.4305C22.558 20.9332 22.4103 20.4471 22.1335 20.0337C21.8568 19.6202 21.4634 19.2979 21.0032 19.1076C20.5429 18.9173 20.0365 18.8676 19.5479 18.9646C19.0594 19.0616 18.6106 19.301 18.2583 19.6527C17.9061 20.0043 17.6662 20.4523 17.569 20.94C17.4718 21.4277 17.5217 21.9333 17.7124 22.3927C17.903 22.8521 18.2258 23.2448 18.64 23.521C19.0542 23.7973 19.5412 23.9448 20.0393 23.9448C20.3706 23.9469 20.6991 23.8832 21.0056 23.7576C21.3121 23.632 21.5906 23.4469 21.8249 23.213C22.0592 22.9791 22.2447 22.7011 22.3705 22.3951C22.4963 22.0892 22.5601 21.7613 22.558 21.4305ZM18.451 21.4305C18.4505 21.1165 18.5433 20.8094 18.7178 20.5481C18.8922 20.2868 19.1403 20.083 19.4308 19.9625C19.7213 19.8421 20.041 19.8104 20.3496 19.8714C20.6582 19.9324 20.9416 20.0835 21.1641 20.3054C21.3867 20.5274 21.5382 20.8102 21.5996 21.1182C21.661 21.4261 21.6295 21.7454 21.5091 22.0354C21.3886 22.3255 21.1847 22.5734 20.9231 22.7477C20.6614 22.922 20.3539 23.0149 20.0393 23.0147C19.6186 23.0136 19.2154 22.8465 18.9178 22.5496C18.6203 22.2528 18.4524 21.8505 18.451 21.4305Z" fill="#2E8CAD"/>
<path d="M33.6469 13.0048C33.1488 13.0053 32.662 13.1532 32.2481 13.4299C31.8343 13.7065 31.5118 14.0994 31.3216 14.559C31.1315 15.0185 31.082 15.524 31.1796 16.0116C31.2772 16.4992 31.5174 16.9469 31.8699 17.2982C32.2224 17.6496 32.6713 17.8887 33.1599 17.9853C33.6485 18.082 34.1548 18.0318 34.6148 17.8413C35.0749 17.6507 35.468 17.3282 35.7445 16.9146C36.021 16.5011 36.1684 16.0149 36.1682 15.5177C36.1671 14.8509 35.901 14.2117 35.4283 13.7405C34.9556 13.2694 34.3149 13.0048 33.6469 13.0048ZM33.6469 17.1045C33.3325 17.1045 33.0251 17.0114 32.7637 16.8371C32.5023 16.6627 32.2986 16.4149 32.1783 16.1249C32.058 15.835 32.0265 15.5159 32.0878 15.2081C32.1492 14.9003 32.3006 14.6176 32.5229 14.3957C32.7452 14.1738 33.0284 14.0226 33.3367 13.9614C33.6451 13.9002 33.9647 13.9316 34.2552 14.0517C34.5456 14.1718 34.7939 14.3752 34.9685 14.6361C35.1432 14.8971 35.2364 15.2039 35.2364 15.5177C35.2376 15.7264 35.1974 15.9333 35.1179 16.1264C35.0385 16.3194 34.9214 16.4949 34.7736 16.6424C34.6257 16.79 34.45 16.9069 34.2566 16.9862C34.0632 17.0655 33.8559 17.1057 33.6469 17.1045Z" fill="#2E8CAD"/>
<path d="M24.3744 19.9091C24.7649 19.9078 25.1388 19.752 25.4144 19.4759C25.69 19.1998 25.8447 18.8259 25.8447 18.4362C25.8445 18.145 25.7577 17.8604 25.5954 17.6185C25.433 17.3766 25.2025 17.1882 24.9328 17.0771C24.6632 16.966 24.3666 16.9373 24.0806 16.9945C23.7946 17.0518 23.5321 17.1925 23.3262 17.3987C23.1203 17.605 22.9803 17.8676 22.924 18.1533C22.8677 18.439 22.8975 18.7349 23.0097 19.0037C23.1219 19.2725 23.3115 19.5019 23.5544 19.6631C23.7974 19.8243 24.0827 19.9099 24.3744 19.9091ZM23.8253 18.4362C23.8253 18.2918 23.8828 18.1534 23.985 18.0514C24.0872 17.9493 24.2259 17.892 24.3705 17.892C24.5147 17.8923 24.653 17.9496 24.7551 18.0513C24.8572 18.153 24.9149 18.2909 24.9156 18.4349C24.9153 18.579 24.8577 18.717 24.7555 18.8188C24.6533 18.9206 24.5148 18.9777 24.3705 18.9777C24.299 18.9779 24.2281 18.964 24.162 18.9368C24.0958 18.9096 24.0357 18.8696 23.9851 18.8192C23.9345 18.7688 23.8943 18.7089 23.8669 18.6429C23.8395 18.577 23.8253 18.5063 23.8253 18.4349V18.4362Z" fill="#2E8CAD"/>
<path d="M37.3057 12.0641C37.4995 12.0638 37.6915 12.0253 37.8704 11.9509C38.0494 11.8765 38.2119 11.7676 38.3487 11.6304C38.4855 11.4932 38.5939 11.3305 38.6677 11.1515C38.7414 10.9725 38.7791 10.7808 38.7786 10.5872C38.7776 10.1981 38.6219 9.82523 38.3457 9.55054C38.0696 9.27585 37.6955 9.12177 37.3057 9.12211C37.1085 9.11624 36.9121 9.14995 36.7281 9.22123C36.5442 9.29251 36.3765 9.39993 36.2349 9.5371C36.0934 9.67428 35.9808 9.83843 35.9039 10.0198C35.8271 10.2012 35.7875 10.3962 35.7875 10.5931C35.7875 10.7901 35.8271 10.985 35.9039 11.1664C35.9808 11.3478 36.0934 11.512 36.2349 11.6491C36.3765 11.7863 36.5442 11.8937 36.7281 11.965C36.9121 12.0363 37.1085 12.07 37.3057 12.0641ZM37.3057 10.0483C37.4492 10.0486 37.5869 10.1053 37.6889 10.2062C37.7909 10.307 37.8491 10.4439 37.8508 10.5872C37.8508 10.7316 37.7934 10.87 37.6911 10.972C37.5889 11.0741 37.4502 11.1314 37.3057 11.1314C37.1612 11.1311 37.0227 11.0736 36.9206 10.9717C36.8184 10.8697 36.7609 10.7315 36.7605 10.5872C36.7622 10.4439 36.8204 10.307 36.9224 10.2062C37.0244 10.1053 37.1621 10.0486 37.3057 10.0483Z" fill="#2E8CAD"/>
<path d="M40.2436 15.0702C40.4529 15.0699 40.6556 14.9971 40.8171 14.8642C40.9786 14.7313 41.089 14.5466 41.1293 14.3416C41.1696 14.1366 41.1375 13.924 41.0383 13.74C40.9392 13.556 40.7791 13.4121 40.5855 13.3327C40.3919 13.2533 40.1767 13.2434 39.9767 13.3048C39.7766 13.3661 39.604 13.4948 39.4884 13.6689C39.3727 13.8431 39.3212 14.0518 39.3425 14.2597C39.3639 14.4675 39.4568 14.6615 39.6054 14.8086C39.7752 14.9766 40.0046 15.0707 40.2436 15.0702ZM40.2174 14.1689C40.2174 14.162 40.2202 14.1553 40.2251 14.1504C40.23 14.1455 40.2367 14.1428 40.2436 14.1428C40.2505 14.1431 40.257 14.1459 40.262 14.1506C40.2663 14.1559 40.269 14.1622 40.2698 14.1689C40.2698 14.1977 40.2174 14.1977 40.2174 14.1689Z" fill="#2E8CAD"/>
<path d="M51.1979 17.7402C51.1979 17.5015 51.1029 17.2726 50.9338 17.1038C50.7647 16.935 50.5354 16.8402 50.2963 16.8402C50.1176 16.8402 49.943 16.8931 49.7945 16.9922C49.646 17.0913 49.5303 17.2321 49.462 17.3969C49.3937 17.5617 49.3759 17.743 49.4108 17.9178C49.4458 18.0927 49.5319 18.2533 49.6583 18.3793C49.7847 18.5053 49.9457 18.591 50.1209 18.6257C50.2962 18.6603 50.4777 18.6423 50.6427 18.5738C50.8077 18.5054 50.9486 18.3897 51.0477 18.2413C51.1467 18.0929 51.1994 17.9185 51.1992 17.7402H51.1979ZM50.2688 17.7402C50.2688 17.7368 50.2694 17.7335 50.2708 17.7304C50.2721 17.7273 50.2741 17.7245 50.2765 17.7222C50.279 17.7198 50.2819 17.718 50.285 17.7169C50.2882 17.7157 50.2916 17.7152 50.295 17.7154C50.3015 17.7159 50.3077 17.7187 50.3125 17.7232C50.3172 17.7277 50.3203 17.7337 50.3212 17.7402C50.3212 17.7472 50.3184 17.7538 50.3135 17.7587C50.3086 17.7636 50.3019 17.7664 50.295 17.7664C50.2882 17.7658 50.2819 17.7628 50.2771 17.7581C50.2723 17.7533 50.2693 17.747 50.2688 17.7402Z" fill="#2E8CAD"/>
<path d="M54.2644 20.8733C54.264 20.4832 54.1085 20.1092 53.8321 19.8335C53.5557 19.5578 53.1809 19.403 52.7901 19.403C52.4985 19.403 52.2134 19.4893 51.9709 19.6511C51.7285 19.8128 51.5395 20.0428 51.428 20.3117C51.3164 20.5807 51.2873 20.8767 51.3443 21.1622C51.4013 21.4477 51.5418 21.7099 51.7481 21.9157C51.9544 22.1215 52.2172 22.2615 52.5033 22.3182C52.7894 22.3748 53.0858 22.3455 53.3552 22.2339C53.6245 22.1223 53.8547 21.9335 54.0165 21.6913C54.1784 21.4491 54.2646 21.1644 54.2644 20.8733ZM52.245 20.8733C52.2453 20.7292 52.3029 20.5911 52.4051 20.4894C52.5073 20.3876 52.6458 20.3304 52.7901 20.3304C52.898 20.3304 53.0034 20.3624 53.0931 20.4222C53.1828 20.4821 53.2527 20.5672 53.2939 20.6667C53.3351 20.7662 53.3458 20.8757 53.3247 20.9813C53.3035 21.0869 53.2515 21.1838 53.1751 21.2599C53.0987 21.3359 53.0015 21.3877 52.8957 21.4085C52.7898 21.4294 52.6802 21.4184 52.5806 21.377C52.481 21.3356 52.3959 21.2657 52.3362 21.176C52.2765 21.0863 52.2447 20.981 52.245 20.8733Z" fill="#2E8CAD"/>
<path d="M59.7576 13.2348C56.0601 9.54689 51.5822 6.7324 46.6527 4.99795C41.7231 3.26351 36.467 2.65312 31.2702 3.21162C26.0734 3.77011 21.0678 5.48331 16.621 8.22543C12.1742 10.9675 8.39907 14.669 5.57267 19.058C2.74628 23.447 0.940413 28.4122 0.287654 33.589C-0.365105 38.7658 0.151813 44.0228 1.80046 48.9741C3.4491 53.9254 6.18762 58.4453 9.81497 62.2019C13.4423 65.9586 17.8664 68.8566 22.7625 70.6833C22.8665 70.7217 22.9765 70.7417 23.0874 70.7421C23.3051 70.742 23.5158 70.6655 23.6827 70.5262C23.8497 70.3868 23.9623 70.1933 24.001 69.9795C24.0397 69.7657 24.002 69.5452 23.8944 69.3563C23.7868 69.1674 23.6163 69.0222 23.4124 68.9461C10.5203 64.1426 1.85825 51.6786 1.85825 37.943C1.85825 19.6996 16.7265 4.85742 35.002 4.85742C53.2775 4.85742 68.1445 19.697 68.1445 37.9404C68.1491 43.403 66.7968 48.7816 64.2087 53.5946C61.6206 58.4077 57.8774 62.5051 53.3142 65.52C53.2565 65.558 53.0717 65.6849 53.0285 65.7084C47.1865 68.9448 41.1375 70.0253 37.9767 68.411C37.0528 67.9388 36.433 67.2442 36.1224 66.3429H36.4671C37.4083 66.3418 38.3106 65.9681 38.9762 65.3038C39.6417 64.6394 40.016 63.7386 40.0171 62.7991V62.6369C40.3484 62.4981 40.6313 62.2648 40.8303 61.9663C41.0294 61.6677 41.1358 61.3172 41.1362 60.9585V57.0341C41.1409 56.9095 41.1203 56.7852 41.0758 56.6686C41.0312 56.5521 40.9636 56.4457 40.8769 56.3559C40.7903 56.266 40.6863 56.1946 40.5713 56.1458C40.4564 56.097 40.3327 56.0718 40.2077 56.0718C40.0828 56.0718 39.9591 56.097 39.8441 56.1458C39.7292 56.1946 39.6252 56.266 39.5385 56.3559C39.4519 56.4457 39.3842 56.5521 39.3397 56.6686C39.2951 56.7852 39.2746 56.9095 39.2793 57.0341V60.9206H30.7234V57.0367C30.7281 56.9121 30.7076 56.7878 30.663 56.6712C30.6185 56.5547 30.5508 56.4483 30.4641 56.3585C30.3775 56.2687 30.2735 56.1972 30.1586 56.1484C30.0436 56.0996 29.9199 56.0744 29.795 56.0744C29.67 56.0744 29.5463 56.0996 29.4314 56.1484C29.3164 56.1972 29.2124 56.2687 29.1258 56.3585C29.0391 56.4483 28.9714 56.5547 28.9269 56.6712C28.8824 56.7878 28.8618 56.9121 28.8665 57.0367V60.9612C28.8669 61.3198 28.9733 61.6704 29.1724 61.9689C29.3714 62.2675 29.6543 62.5007 29.9856 62.6395V62.8017C29.9867 63.7413 30.361 64.642 31.0265 65.3064C31.6921 65.9707 32.5944 66.3444 33.5356 66.3455H34.1908C34.5617 67.9872 35.5655 69.2653 37.1236 70.0632C38.3594 70.6964 39.9031 71.0038 41.6512 71.0038C45.2038 71.0038 49.5951 69.731 53.9261 67.3318C54.0087 67.286 54.276 67.1081 54.3376 67.0702C58.6615 64.21 62.2946 60.4264 64.9742 55.9929C67.6537 51.5595 69.3129 46.587 69.8316 41.435C70.3503 36.2831 69.7155 31.0804 67.9733 26.2034C66.231 21.3263 63.4248 16.8966 59.7576 13.2348ZM31.8451 62.7991V62.7834H38.1615V62.8056C38.1577 63.2519 37.9775 63.6785 37.6602 63.9928C37.3429 64.3071 36.9141 64.4837 36.4671 64.484H33.5356C33.088 64.483 32.6591 64.3052 32.3423 63.9895C32.0256 63.6738 31.8469 63.2459 31.8451 62.7991Z" fill="#2E8CAD"/>
<path d="M20.6003 38.0491C20.549 38.0161 20.4916 37.9935 20.4315 37.9827C20.3714 37.9719 20.3098 37.973 20.2501 37.986C20.1905 37.999 20.134 38.0236 20.0839 38.0585C20.0338 38.0933 19.9911 38.1377 19.9582 38.1891C17.6911 41.7106 15.0702 43.5276 11.7391 45.8287L11.1035 46.2682C11.0227 46.3246 10.9619 46.4051 10.9299 46.4982C10.8979 46.5914 10.8964 46.6922 10.9255 46.7862C10.9547 46.8803 11.013 46.9626 11.0921 47.0214C11.1712 47.0802 11.267 47.1123 11.3656 47.1133C11.4595 47.1127 11.5509 47.0835 11.6277 47.0295L12.2619 46.5913C15.538 44.3243 18.3686 42.3673 20.734 38.6901C20.801 38.5873 20.8246 38.4622 20.7995 38.3421C20.7745 38.222 20.7029 38.1167 20.6003 38.0491Z" fill="#2E8CAD"/>
</g>
<defs>
<clipPath id="clip0_6_9">
<rect width="70" height="68" fill="white" transform="translate(0 3)"/>
</clipPath>
</defs>
</svg>
