<svg width="112" height="15" viewBox="0 0 112 15" fill="none" xmlns="http://www.w3.org/2000/svg">
<path d="M14.9627 5.20682L10.4996 4.55819L8.50448 0.513459C8.44999 0.402716 8.36034 0.313068 8.2496 0.258576C7.97186 0.121466 7.63436 0.235724 7.4955 0.513459L5.50038 4.55819L1.03729 5.20682C0.914245 5.2244 0.801745 5.2824 0.715612 5.37029C0.611482 5.47732 0.554102 5.62131 0.55608 5.77062C0.558057 5.91993 0.619231 6.06235 0.726159 6.16658L3.95526 9.31483L3.19237 13.7603C3.17448 13.8637 3.18592 13.9701 3.2254 14.0673C3.26488 14.1646 3.33082 14.2488 3.41573 14.3105C3.50065 14.3722 3.60114 14.4088 3.70583 14.4163C3.81051 14.4237 3.91519 14.4017 4.008 14.3527L7.99999 12.2539L11.992 14.3527C12.101 14.4107 12.2275 14.4301 12.3488 14.409C12.6547 14.3562 12.8603 14.0662 12.8076 13.7603L12.0447 9.31483L15.2738 6.16658C15.3617 6.08045 15.4197 5.96795 15.4373 5.8449C15.4848 5.53729 15.2703 5.25252 14.9627 5.20682Z" fill="#50B2EA"/>
<path d="M38.9627 5.20682L34.4996 4.55819L32.5045 0.513459C32.45 0.402716 32.3603 0.313068 32.2496 0.258576C31.9719 0.121466 31.6344 0.235724 31.4955 0.513459L29.5004 4.55819L25.0373 5.20682C24.9142 5.2244 24.8017 5.2824 24.7156 5.37029C24.6115 5.47732 24.5541 5.62131 24.5561 5.77062C24.5581 5.91993 24.6192 6.06235 24.7262 6.16658L27.9553 9.31483L27.1924 13.7603C27.1745 13.8637 27.1859 13.9701 27.2254 14.0673C27.2649 14.1646 27.3308 14.2488 27.4157 14.3105C27.5006 14.3722 27.6011 14.4088 27.7058 14.4163C27.8105 14.4237 27.9152 14.4017 28.008 14.3527L32 12.2539L35.992 14.3527C36.101 14.4107 36.2275 14.4301 36.3488 14.409C36.6547 14.3562 36.8603 14.0662 36.8076 13.7603L36.0447 9.31483L39.2738 6.16658C39.3617 6.08045 39.4197 5.96795 39.4373 5.8449C39.4848 5.53729 39.2703 5.25252 38.9627 5.20682Z" fill="#50B2EA"/>
<path d="M62.9627 5.20682L58.4996 4.55819L56.5045 0.513459C56.45 0.402716 56.3603 0.313068 56.2496 0.258576C55.9719 0.121466 55.6344 0.235724 55.4955 0.513459L53.5004 4.55819L49.0373 5.20682C48.9142 5.2244 48.8017 5.2824 48.7156 5.37029C48.6115 5.47732 48.5541 5.62131 48.5561 5.77062C48.5581 5.91993 48.6192 6.06235 48.7262 6.16658L51.9553 9.31483L51.1924 13.7603C51.1745 13.8637 51.1859 13.9701 51.2254 14.0673C51.2649 14.1646 51.3308 14.2488 51.4157 14.3105C51.5006 14.3722 51.6011 14.4088 51.7058 14.4163C51.8105 14.4237 51.9152 14.4017 52.008 14.3527L56 12.2539L59.992 14.3527C60.101 14.4107 60.2275 14.4301 60.3488 14.409C60.6547 14.3562 60.8603 14.0662 60.8076 13.7603L60.0447 9.31483L63.2738 6.16658C63.3617 6.08045 63.4197 5.96795 63.4373 5.8449C63.4848 5.53729 63.2703 5.25252 62.9627 5.20682Z" fill="#50B2EA"/>
<path d="M86.9627 5.20682L82.4996 4.55819L80.5045 0.513459C80.45 0.402716 80.3603 0.313068 80.2496 0.258576C79.9719 0.121466 79.6344 0.235724 79.4955 0.513459L77.5004 4.55819L73.0373 5.20682C72.9142 5.2244 72.8017 5.2824 72.7156 5.37029C72.6115 5.47732 72.5541 5.62131 72.5561 5.77062C72.5581 5.91993 72.6192 6.06235 72.7262 6.16658L75.9553 9.31483L75.1924 13.7603C75.1745 13.8637 75.1859 13.9701 75.2254 14.0673C75.2649 14.1646 75.3308 14.2488 75.4157 14.3105C75.5006 14.3722 75.6011 14.4088 75.7058 14.4163C75.8105 14.4237 75.9152 14.4017 76.008 14.3527L80 12.2539L83.992 14.3527C84.101 14.4107 84.2275 14.4301 84.3488 14.409C84.6547 14.3562 84.8603 14.0662 84.8076 13.7603L84.0447 9.31483L87.2738 6.16658C87.3617 6.08045 87.4197 5.96795 87.4373 5.8449C87.4848 5.53729 87.2703 5.25252 86.9627 5.20682Z" fill="#50B2EA"/>
<path d="M110.963 5.20682L106.5 4.55819L104.504 0.513459C104.45 0.402716 104.36 0.313068 104.25 0.258576C103.972 0.121466 103.634 0.235724 103.495 0.513459L101.5 4.55819L97.0373 5.20682C96.9142 5.2244 96.8017 5.2824 96.7156 5.37029C96.6115 5.47732 96.5541 5.62131 96.5561 5.77062C96.5581 5.91993 96.6192 6.06235 96.7262 6.16658L99.9553 9.31483L99.1924 13.7603C99.1745 13.8637 99.1859 13.9701 99.2254 14.0673C99.2649 14.1646 99.3308 14.2488 99.4157 14.3105C99.5006 14.3722 99.6011 14.4088 99.7058 14.4163C99.8105 14.4237 99.9152 14.4017 100.008 14.3527L104 12.2539L107.992 14.3527C108.101 14.4107 108.228 14.4301 108.349 14.409C108.655 14.3562 108.86 14.0662 108.808 13.7603L108.045 9.31483L111.274 6.16658C111.362 6.08045 111.42 5.96795 111.437 5.8449C111.485 5.53729 111.27 5.25252 110.963 5.20682Z" fill="#50B2EA"/>
</svg>
