<svg width="1512" height="3466" viewBox="0 0 1512 3466" fill="none" xmlns="http://www.w3.org/2000/svg">
<g opacity="0.01" clip-path="url(#clip0_0_1)">
<path fill-rule="evenodd" clip-rule="evenodd" d="M-150 277.111L-150 296.201L152.94 14.0265L326.85 230.654L274.228 342.868L-150 370.837L-150 384.864L-46.215 378.019L-150 502.155L-150 524.008L-26.9587 376.728L138.045 365.857L48.2854 638.157L-150 555.666L-150 570.801L81.8052 667.248L330.23 770.597L404.114 801.343L-41.4325 1052L-12.9337 1052L407.466 815.496L326.135 1052L340.875 1052L464.533 692.525L535.752 838.57L639.86 1052L655.4 1052L550.563 837.069L786.393 614.522L786.463 614.452L1071.42 345.547L1096.22 399.213L844.373 803.84L689.887 1052L706.338 1052L1103.25 414.39L1251 734.198L1302.37 845.359L1041.16 946.351L1040.96 946.351L767.992 1052L828.3 1052L829.183 1043.3L1037.33 962.804L1044.26 1052L1058.28 1052L1051.84 969.243L1148.41 1052L1169.86 1052L1056.98 955.216L1308.24 858.025L1350.77 950.068L1285.08 1052L1301.71 1052L1357.69 965.035L1397.88 1052L1413.31 1052L1365.15 947.768L1365.06 947.6L1318.21 846.201L1266.1 733.595L1533 543.786L1533 526.645L1260.14 720.634L1196.53 582.976L1270.33 261.373L1460.74 375.466L1460.98 375.606L1533 418.752L1533 402.467L1471.29 365.493L1458.32 -6.52901e-06L1444.29 -7.75511e-06L1456.91 356.937L1269.33 244.527L1269.2 244.457L1182.25 192.39L1270.73 -2.29282e-05L1255.31 -2.42769e-05L1194.49 132.384L1170.33 185.152L950.584 53.4977L950.43 53.3995L861.203 -5.87304e-05L834.008 -6.11078e-05L941.397 64.3402L1065.24 332.165L787.333 594.464L734.978 -6.97653e-05L720.953 -7.09915e-05L774.374 606.639L544.153 823.912L470.957 673.827L588.543 331.913C588.537 331.885 588.537 331.856 588.543 331.829L702.72 -7.25854e-05L687.952 -7.38765e-05L582.526 306.455L493.748 -9.08543e-05L479.19 -9.2127e-05L572.82 323.202L290.147 341.83L341.282 232.772L341.394 232.534L450.424 -9.46418e-05L434.997 -9.59905e-05L333.442 216.558L159.63 -0.000120064L141.72 -0.00012163L144.217 3.11377L-150 277.111ZM148.971 377.317L61.2305 643.543L319.248 750.903L148.971 377.317ZM415.853 791.104L456.806 672.031L571.923 337.271L279.431 356.572L279.095 356.572L158.48 364.511L338.196 758.843L376.681 774.805L415.853 791.104ZM1110.48 396.73L1186.95 562.245L1257.72 253.883L1169.84 201.156L962.758 77.1466L1079.95 330.721L1080.1 331.029L1110.48 396.73Z" fill="white"/>
</g>
<g opacity="0.01" clip-path="url(#clip1_0_1)">
<path fill-rule="evenodd" clip-rule="evenodd" d="M-150 1841.89L-150 1822.8L152.94 2104.97L326.85 1888.35L274.228 1776.13L-150 1748.16L-150 1734.14L-46.215 1740.98L-150 1616.85L-150 1594.99L-26.9587 1742.27L138.045 1753.14L48.2854 1480.84L-150 1563.33L-150 1548.2L81.8052 1451.75L330.23 1348.4L404.114 1317.66L-41.4325 1067L-12.9337 1067L407.466 1303.5L326.135 1067L340.875 1067L464.533 1426.48L535.752 1280.43L639.86 1067L655.4 1067L550.563 1281.93L786.393 1504.48L786.463 1504.55L1071.42 1773.45L1096.22 1719.79L844.373 1315.16L689.887 1067L706.338 1067L1103.25 1704.61L1251 1384.8L1302.37 1273.64L1041.16 1172.65L1040.96 1172.65L767.992 1067L828.3 1067L829.183 1075.7L1037.33 1156.2L1044.26 1067L1058.28 1067L1051.84 1149.76L1148.41 1067L1169.86 1067L1056.98 1163.78L1308.24 1260.97L1350.77 1168.93L1285.08 1067L1301.71 1067L1357.69 1153.97L1397.88 1067L1413.31 1067L1365.15 1171.23L1365.06 1171.4L1318.21 1272.8L1266.1 1385.41L1533 1575.21L1533 1592.35L1260.14 1398.37L1196.53 1536.02L1270.33 1857.63L1460.74 1743.53L1460.98 1743.39L1533 1700.25L1533 1716.53L1471.29 1753.51L1458.32 2119L1444.29 2119L1456.91 1762.06L1269.33 1874.47L1269.2 1874.54L1182.25 1926.61L1270.73 2119L1255.31 2119L1194.49 1986.62L1170.33 1933.85L950.584 2065.5L950.43 2065.6L861.203 2119L834.008 2119L941.397 2054.66L1065.24 1786.83L787.333 1524.54L734.978 2119L720.953 2119L774.374 1512.36L544.153 1295.09L470.957 1445.17L588.543 1787.09C588.537 1787.11 588.537 1787.14 588.543 1787.17L702.72 2119L687.952 2119L582.526 1812.55L493.748 2119L479.19 2119L572.82 1795.8L290.147 1777.17L341.282 1886.23L341.394 1886.47L450.424 2119L434.997 2119L333.442 1902.44L159.63 2119L141.72 2119L144.217 2115.89L-150 1841.89ZM148.971 1741.68L61.2305 1475.46L319.248 1368.1L148.971 1741.68ZM415.853 1327.9L456.806 1446.97L571.923 1781.73L279.431 1762.43L279.095 1762.43L158.48 1754.49L338.196 1360.16L376.681 1344.2L415.853 1327.9ZM1110.48 1722.27L1186.95 1556.76L1257.72 1865.12L1169.84 1917.84L962.758 2041.85L1079.95 1788.28L1080.1 1787.97L1110.48 1722.27Z" fill="white"/>
</g>
<g opacity="0.01" clip-path="url(#clip2_0_1)">
<path fill-rule="evenodd" clip-rule="evenodd" d="M-150 2411.11L-150 2430.2L152.94 2148.03L326.85 2364.65L274.228 2476.87L-150 2504.84L-150 2518.86L-46.215 2512.02L-150 2636.15L-150 2658.01L-26.9587 2510.73L138.045 2499.86L48.2854 2772.16L-150 2689.67L-150 2704.8L81.8052 2801.25L330.23 2904.6L404.114 2935.34L-41.4325 3186L-12.9337 3186L407.466 2949.5L326.135 3186L340.875 3186L464.533 2826.52L535.752 2972.57L639.86 3186L655.4 3186L550.563 2971.07L786.393 2748.52L786.463 2748.45L1071.42 2479.55L1096.22 2533.21L844.373 2937.84L689.887 3186L706.338 3186L1103.25 2548.39L1251 2868.2L1302.37 2979.36L1041.16 3080.35L1040.96 3080.35L767.992 3186L828.3 3186L829.183 3177.3L1037.33 3096.8L1044.26 3186L1058.28 3186L1051.84 3103.24L1148.41 3186L1169.86 3186L1056.98 3089.22L1308.24 2992.03L1350.77 3084.07L1285.08 3186L1301.71 3186L1357.69 3099.03L1397.88 3186L1413.31 3186L1365.15 3081.77L1365.06 3081.6L1318.21 2980.2L1266.1 2867.59L1533 2677.79L1533 2660.65L1260.14 2854.63L1196.53 2716.98L1270.33 2395.37L1460.74 2509.47L1460.98 2509.61L1533 2552.75L1533 2536.47L1471.29 2499.49L1458.32 2134L1444.29 2134L1456.91 2490.94L1269.33 2378.53L1269.2 2378.46L1182.25 2326.39L1270.73 2134L1255.31 2134L1194.49 2266.38L1170.33 2319.15L950.584 2187.5L950.43 2187.4L861.203 2134L834.008 2134L941.397 2198.34L1065.24 2466.17L787.333 2728.46L734.978 2134L720.953 2134L774.374 2740.64L544.153 2957.91L470.957 2807.83L588.543 2465.91C588.537 2465.89 588.537 2465.86 588.543 2465.83L702.72 2134L687.952 2134L582.526 2440.45L493.748 2134L479.19 2134L572.82 2457.2L290.147 2475.83L341.282 2366.77L341.394 2366.53L450.424 2134L434.997 2134L333.442 2350.56L159.63 2134L141.72 2134L144.217 2137.11L-150 2411.11ZM148.971 2511.32L61.2305 2777.54L319.248 2884.9L148.971 2511.32ZM415.853 2925.1L456.806 2806.03L571.923 2471.27L279.431 2490.57L279.095 2490.57L158.48 2498.51L338.196 2892.84L376.681 2908.8L415.853 2925.1ZM1110.48 2530.73L1186.95 2696.24L1257.72 2387.88L1169.84 2335.16L962.758 2211.15L1079.95 2464.72L1080.1 2465.03L1110.48 2530.73Z" fill="white"/>
</g>
<g opacity="0.01" clip-path="url(#clip3_0_1)">
<path fill-rule="evenodd" clip-rule="evenodd" d="M-150 3960.89L-150 3941.8L152.94 4223.97L326.85 4007.35L274.228 3895.13L-150 3867.16L-150 3853.14L-46.215 3859.98L-150 3735.85L-150 3713.99L-26.9587 3861.27L138.045 3872.14L48.2854 3599.84L-150 3682.33L-150 3667.2L81.8052 3570.75L330.23 3467.4L404.114 3436.66L-41.4325 3186L-12.9337 3186L407.466 3422.5L326.135 3186L340.875 3186L464.533 3545.48L535.752 3399.43L639.86 3186L655.4 3186L550.563 3400.93L786.393 3623.48L786.463 3623.55L1071.42 3892.45L1096.22 3838.79L844.373 3434.16L689.887 3186L706.338 3186L1103.25 3823.61L1251 3503.8L1302.37 3392.64L1041.16 3291.65L1040.96 3291.65L767.992 3186L828.3 3186L829.183 3194.7L1037.33 3275.2L1044.26 3186L1058.28 3186L1051.84 3268.76L1148.41 3186L1169.86 3186L1056.98 3282.78L1308.24 3379.97L1350.77 3287.93L1285.08 3186L1301.71 3186L1357.69 3272.97L1397.88 3186L1413.31 3186L1365.15 3290.23L1365.06 3290.4L1318.21 3391.8L1266.1 3504.41L1533 3694.21L1533 3711.35L1260.14 3517.37L1196.53 3655.02L1270.33 3976.63L1460.74 3862.53L1460.98 3862.39L1533 3819.25L1533 3835.53L1471.29 3872.51L1458.32 4238L1444.29 4238L1456.91 3881.06L1269.33 3993.47L1269.2 3993.54L1182.25 4045.61L1270.73 4238L1255.31 4238L1194.49 4105.62L1170.33 4052.85L950.584 4184.5L950.43 4184.6L861.203 4238L834.008 4238L941.397 4173.66L1065.24 3905.83L787.333 3643.54L734.978 4238L720.953 4238L774.374 3631.36L544.153 3414.09L470.957 3564.17L588.543 3906.09C588.537 3906.11 588.537 3906.14 588.543 3906.17L702.72 4238L687.952 4238L582.526 3931.55L493.748 4238L479.19 4238L572.82 3914.8L290.147 3896.17L341.282 4005.23L341.394 4005.47L450.424 4238L434.997 4238L333.442 4021.44L159.63 4238L141.72 4238L144.217 4234.89L-150 3960.89ZM148.971 3860.68L61.2305 3594.46L319.248 3487.1L148.971 3860.68ZM415.853 3446.9L456.806 3565.97L571.923 3900.73L279.431 3881.43L279.095 3881.43L158.48 3873.49L338.196 3479.16L376.681 3463.2L415.853 3446.9ZM1110.48 3841.27L1186.95 3675.76L1257.72 3984.12L1169.84 4036.84L962.758 4160.85L1079.95 3907.28L1080.1 3906.97L1110.48 3841.27Z" fill="white"/>
</g>
<defs>
<clipPath id="clip0_0_1">
<rect width="1683" height="1052" fill="white" transform="translate(1533 1052) rotate(-180)"/>
</clipPath>
<clipPath id="clip1_0_1">
<rect width="1683" height="1052" fill="white" transform="matrix(-1 8.74228e-08 8.74228e-08 1 1533 1067)"/>
</clipPath>
<clipPath id="clip2_0_1">
<rect width="1683" height="1052" fill="white" transform="translate(1533 3186) rotate(-180)"/>
</clipPath>
<clipPath id="clip3_0_1">
<rect width="1683" height="1052" fill="white" transform="matrix(-1 8.74228e-08 8.74228e-08 1 1533 3186)"/>
</clipPath>
</defs>
</svg>
