<svg width="20" height="21" viewBox="0 0 20 21" fill="none" xmlns="http://www.w3.org/2000/svg">
<path d="M12.6692 7.94941L7.3066 5.00795L4.56682 6.50932L3.24756 5.79394L9.96937 2.10645L11.2844 2.82583L8.65154 4.26991L14.0199 7.21138L12.6692 7.94941Z" fill="#1D2542"/>
<path d="M7.29373 10.55L5.40826 10.9829L3.24752 8.32787L2.12793 7.76569V14.8396L3.38159 15.5057L3.35734 9.91051L4.66947 11.4425L4.70655 16.2197L5.99016 16.9058L5.98018 12.1526L6.56493 12.0194L7.34365 12.01L7.35221 17.6332L8.63581 18.3206V11.304L7.29373 10.55ZM7.29373 10.55L5.40826 10.9829L3.24752 8.32787L2.12793 7.76569V14.8396L3.38159 15.5057L3.35734 9.91051L4.66947 11.4425L4.70655 16.2197L5.99016 16.9058L5.98018 12.1526L6.56493 12.0194L7.34365 12.01L7.35221 17.6332L8.63581 18.3206V11.304L7.29373 10.55ZM7.29373 10.55L5.40826 10.9829L3.24752 8.32787L2.12793 7.76569V14.8396L3.38159 15.5057L3.35734 9.91051L4.66947 11.4425L4.70655 16.2197L5.99016 16.9058L5.98018 12.1526L6.56493 12.0194L7.34365 12.01L7.35221 17.6332L8.63581 18.3206V11.304L7.29373 10.55ZM7.29373 10.55L5.40826 10.9829L3.24752 8.32787L2.12793 7.76569V14.8396L3.38159 15.5057L3.35734 9.91051L4.66947 11.4425L4.70655 16.2197L5.99016 16.9058L5.98018 12.1526L6.56493 12.0194L7.34365 12.01L7.35221 17.6332L8.63581 18.3206V11.304L7.29373 10.55ZM18.4183 4.46986L11.4968 0.863635C11.039 0.625175 10.5235 0.5 9.99929 0.5C9.47508 0.5 8.95958 0.625175 8.50175 0.863635L1.57741 4.46986C1.09927 4.71937 0.701036 5.08349 0.42376 5.52467C0.146484 5.96584 0.00020303 6.46812 0 6.9797L0 14.0216C0.000456593 14.533 0.146857 15.035 0.42412 15.4759C0.701384 15.9168 1.09948 16.2807 1.57741 16.5301L8.50175 20.1364C8.95958 20.3748 9.47508 20.5 9.99929 20.5C10.5235 20.5 11.039 20.3748 11.4968 20.1364L18.4212 16.5301C18.8995 16.281 19.2979 15.9172 19.5755 15.4763C19.853 15.0353 19.9996 14.5331 20 14.0216V6.9797C19.9998 6.46796 19.8534 5.96554 19.5758 5.52432C19.2983 5.08311 18.8997 4.71909 18.4212 4.46986H18.4183ZM9.99786 18.6097C9.99795 18.7281 9.96475 18.8445 9.90159 18.9472C9.83843 19.0499 9.74752 19.1353 9.63794 19.1949C9.52837 19.2546 9.40396 19.2862 9.27716 19.2869C9.15036 19.2875 9.0256 19.257 8.91535 19.1985L1.9411 15.4964C1.70681 15.3719 1.51199 15.1917 1.37646 14.9741C1.24094 14.7565 1.16953 14.5092 1.16951 14.2574V6.68529L8.74421 10.6032C9.1219 10.7857 9.43861 11.0617 9.65971 11.4009C9.88082 11.7402 9.9978 12.1297 9.99786 12.5269V18.6097ZM8.39335 9.54282L1.6801 6.06449C1.6801 6.06449 2.0281 5.39839 2.65849 5.06402C3.24467 4.75362 9.00806 1.68293 9.00806 1.68293C9.33649 1.50782 9.70812 1.41572 10.0863 1.41572C10.4645 1.41572 10.8361 1.50782 11.1645 1.68293C11.1645 1.68293 17.2816 4.95211 17.6453 5.13862C17.8253 5.23543 17.9828 5.36464 18.1089 5.51878C18.235 5.67291 18.3271 5.84889 18.3798 6.03651L11.8291 9.52417C11.3063 9.80246 10.7156 9.95035 10.1139 9.95361C9.51212 9.95688 8.91961 9.81541 8.39335 9.54282ZM18.5752 8.81012L12.6834 12.062V16.9311L17.1262 14.4666V12.8267L14.2865 14.4V12.8173L18.5752 10.4487V14.4453C18.5745 14.693 18.5042 14.9362 18.3713 15.1506C18.2384 15.365 18.0476 15.543 17.8179 15.6669L11.2315 19.2291V12.0487C11.2325 11.8013 11.3027 11.5585 11.4354 11.3444C11.568 11.1303 11.7583 10.9524 11.9875 10.8284L18.5752 7.26079V8.81012ZM5.40826 10.9829L3.24752 8.32787L2.12793 7.76569V14.8396L3.38159 15.5057L3.35734 9.91051L4.66947 11.4425L4.70655 16.2197L5.99016 16.9058L5.98018 12.1526L6.56493 12.0194L7.34365 12.01L7.35221 17.6332L8.63581 18.3206V11.304L7.29516 10.55L5.40826 10.9829ZM7.29373 10.55L5.40826 10.9829L3.24752 8.32787L2.12793 7.76569V14.8396L3.38159 15.5057L3.35734 9.91051L4.66947 11.4425L4.70655 16.2197L5.99016 16.9058L5.98018 12.1526L6.56493 12.0194L7.34365 12.01L7.35221 17.6332L8.63581 18.3206V11.304L7.29373 10.55ZM7.29373 10.55L5.40826 10.9829L3.24752 8.32787L2.12793 7.76569V14.8396L3.38159 15.5057L3.35734 9.91051L4.66947 11.4425L4.70655 16.2197L5.99016 16.9058L5.98018 12.1526L6.56493 12.0194L7.34365 12.01L7.35221 17.6332L8.63581 18.3206V11.304L7.29373 10.55Z" fill="#1D2542"/>
</svg>
