<svg width="65" height="27" viewBox="0 0 65 27" fill="none" xmlns="http://www.w3.org/2000/svg">
<path d="M0.941406 11.4873V0.718994H4.36177L6.88687 6.76815H7.17545L9.68415 0.718994H13.1635V11.4873H10.7008V2.29523L11.0484 2.3272L8.12974 9.30355H5.76861L2.83359 2.3272L3.21071 2.29523V11.4873H0.941406Z" fill="white"/>
<path d="M19.5389 11.7684C18.879 11.7832 18.2222 11.6747 17.6041 11.4486C17.0676 11.2468 16.5805 10.9375 16.1743 10.5406C15.7886 10.165 15.487 9.71536 15.2889 9.22016C15.0849 8.72079 14.9814 8.18783 14.9839 7.65032V7.29863C14.9876 6.75023 15.0989 6.2076 15.3119 5.70001C15.5154 5.19749 15.8249 4.7422 16.2202 4.36357C16.6346 3.97127 17.1252 3.66364 17.6632 3.45875C18.8915 3.01538 20.2421 3.01538 21.4705 3.45875C22.0047 3.66344 22.491 3.9712 22.9003 4.36357C23.2828 4.74667 23.5837 5.19979 23.7857 5.69681C24.0016 6.20353 24.113 6.74673 24.1136 7.29543V7.63434C24.1157 8.1715 24.0133 8.70417 23.8119 9.20417C23.6111 9.69804 23.31 10.1472 22.9265 10.5246C22.5176 10.922 22.0285 11.2323 21.4902 11.4358C20.8673 11.6665 20.2051 11.7793 19.5389 11.7684ZM19.5389 9.77648C19.9534 9.79177 20.3634 9.6896 20.7195 9.48233C21.0373 9.28122 21.2871 8.99316 21.4377 8.65425C21.6096 8.28381 21.6958 7.88103 21.6902 7.47447C21.6979 7.05469 21.6094 6.63851 21.4311 6.25633C21.2699 5.9183 21.0156 5.63053 20.6966 5.42505C20.3493 5.2238 19.9528 5.11758 19.5488 5.11758C19.1448 5.11758 18.7483 5.2238 18.401 5.42505C18.0796 5.6279 17.8247 5.91641 17.6664 6.25633C17.3407 7.02409 17.3407 7.88649 17.6664 8.65425C17.8185 8.99519 18.0721 9.2837 18.3945 9.48233C18.7405 9.68215 19.1368 9.78401 19.5389 9.77648Z" fill="white"/>
<path d="M27.2124 11.4871L24.73 3.40454H27.2288L29.5572 11.4871H27.2124ZM27.97 11.4871V9.52724H30.4065V11.4871H27.97ZM28.862 11.4871L30.8755 3.40454H33.2038L31.0558 11.4871H28.862Z" fill="white"/>
<path d="M38.244 11.7686C37.6022 11.7809 36.965 11.6599 36.3748 11.4137C35.8609 11.1923 35.4022 10.8651 35.0303 10.4545C34.6736 10.0606 34.3955 9.60517 34.2104 9.11167C34.0257 8.62229 33.9313 8.10487 33.9317 7.58339V7.28925C33.9291 6.75822 34.0235 6.23099 34.2104 5.7322C34.3944 5.24222 34.669 4.78926 35.0204 4.39576C35.3842 3.99593 35.8315 3.67654 36.3322 3.45897C36.9027 3.22084 37.5185 3.10316 38.1391 3.11367C38.9313 3.08848 39.7136 3.29083 40.3887 3.69556C40.9856 4.07145 41.469 4.59568 41.789 5.21425C42.1126 5.84983 42.2778 6.55092 42.2711 7.26047V8.05658H34.9352V6.71375H40.8085L40.0214 7.33401C40.0314 6.91109 39.9591 6.49015 39.8083 6.09349C39.6897 5.77975 39.4772 5.50796 39.1983 5.31336C38.8878 5.12267 38.5255 5.02794 38.1588 5.0416C37.781 5.02949 37.408 5.12625 37.0864 5.31976C36.7869 5.52193 36.558 5.80868 36.4306 6.14144C36.1346 6.97641 36.1288 7.88314 36.4142 8.72161C36.5381 9.05968 36.7674 9.35147 37.07 9.55608C37.4253 9.76527 37.836 9.86759 38.2506 9.85023C38.63 9.86545 39.0065 9.77921 39.3393 9.60085C39.5958 9.46081 39.7984 9.24305 39.9165 8.98058H42.1497C42.0342 9.51077 41.7902 10.0063 41.4381 10.4257C41.0799 10.8522 40.6238 11.1906 40.1067 11.4137C39.5194 11.6619 38.8839 11.7829 38.244 11.7686Z" fill="white"/>
<path d="M46.2949 2.82917V0.718994H54.9983V2.82917H46.2949ZM49.3972 11.4873V2.53502H51.8797V11.4873H49.3972Z" fill="white"/>
<path d="M59.4321 11.7684C58.771 11.7835 58.1131 11.675 57.494 11.4487C56.9579 11.246 56.471 10.9368 56.0642 10.5407C55.6784 10.1651 55.3769 9.7154 55.1788 9.22021C54.9758 8.72064 54.8734 8.18767 54.877 7.65037V7.29867C54.8745 6.75152 54.9791 6.20893 55.1853 5.70006C55.3889 5.19753 55.6983 4.74224 56.0937 4.36361C56.5093 3.97129 57.0009 3.66369 57.5399 3.4588C58.7671 3.01536 60.1167 3.01536 61.3439 3.4588C61.8781 3.66348 62.3645 3.97124 62.7737 4.36361C63.1659 4.74476 63.4749 5.19937 63.6821 5.70006C63.898 6.20677 64.0094 6.74998 64.01 7.29867V7.63758C64.0121 8.17474 63.9097 8.70741 63.7083 9.20742C63.5075 9.70128 63.2064 10.1504 62.8229 10.5279C62.4161 10.924 61.9292 11.2333 61.3931 11.4359C60.7673 11.6683 60.1016 11.7812 59.4321 11.7684ZM59.4321 9.77652C59.8464 9.79091 60.2562 9.6888 60.6126 9.48238C60.9287 9.27944 61.1781 8.99192 61.3308 8.6543C61.4985 8.27571 61.585 7.8677 61.585 7.45533C61.585 7.04297 61.4985 6.63496 61.3308 6.25637C61.1708 5.91857 60.9176 5.63077 60.5995 5.42509C60.252 5.2245 59.8556 5.11867 59.4517 5.11867C59.0479 5.11867 58.6515 5.2245 58.304 5.42509C57.9801 5.62701 57.7228 5.91561 57.5628 6.25637C57.4005 6.63628 57.3169 7.04377 57.3169 7.45533C57.3169 7.8669 57.4005 8.27439 57.5628 8.6543C57.7126 8.99565 57.9654 9.28447 58.2876 9.48238C58.6339 9.68157 59.03 9.78338 59.4321 9.77652Z" fill="white"/>
<path d="M5.86059 20.3975H11.9438V22.1368H11.0354V23.9688C10.562 24.7133 9.87901 25.3093 9.06779 25.6857C8.16285 26.1003 7.17174 26.3049 6.17213 26.2836C5.28361 26.3029 4.40089 26.1395 3.58144 25.804C2.88438 25.514 2.26173 25.0773 1.75813 24.5251C1.28741 23.9976 0.925531 23.3864 0.692339 22.7251C0.464196 22.09 0.346704 21.4221 0.344729 20.7492V20.4295C0.344173 19.7511 0.461712 19.0776 0.692339 18.4376C0.925364 17.7887 1.28257 17.1887 1.74501 16.6696C2.2271 16.1235 2.82593 15.687 3.49946 15.3907C4.26435 15.062 5.09375 14.9005 5.92946 14.9175C6.84223 14.8994 7.74724 15.0842 8.57589 15.4578C9.31305 15.7905 9.94916 16.3038 10.4222 16.9477C10.8929 17.5971 11.1709 18.3604 11.2256 19.1538H8.74314C8.68886 18.7715 8.52391 18.4121 8.26763 18.1179C7.99876 17.8168 7.66203 17.5804 7.28383 17.4273C6.85515 17.2527 6.39398 17.1667 5.92946 17.1747C5.48401 17.1665 5.04204 17.2526 4.63412 17.4273C4.25589 17.5878 3.91963 17.8293 3.65031 18.1339C3.37606 18.4522 3.16979 18.8207 3.04363 19.2177C2.90433 19.6654 2.83577 20.1312 2.84031 20.5989C2.8338 21.0817 2.90801 21.5622 3.06003 22.0217C3.1977 22.4308 3.42104 22.8075 3.7159 23.128C4.00478 23.4434 4.36525 23.6886 4.76857 23.8441C5.21418 24.0155 5.68987 24.1002 6.16885 24.0935C6.79001 24.1081 7.40452 23.9661 7.95282 23.6811C8.25482 23.5191 8.52202 23.302 8.73986 23.0416V22.1464H5.85075L5.86059 20.3975ZM19.8864 19.2082C20.2118 19.7673 20.3698 20.4042 20.3422 21.0466V26.0023H18.4205V24.4484C18.3595 24.6476 18.2759 24.8396 18.1713 25.0207C17.9504 25.3961 17.6253 25.7031 17.2334 25.9063C16.7804 26.1291 16.2779 26.239 15.7708 26.2261C15.2314 26.2349 14.6969 26.1256 14.2065 25.9063C13.7751 25.7136 13.4097 25.404 13.1539 25.0143C12.8937 24.5945 12.7628 24.1106 12.7767 23.6203C12.7536 23.0968 12.9195 22.582 13.2457 22.1656C13.5898 21.7669 14.0456 21.4747 14.5574 21.3247C15.1888 21.1335 15.8475 21.0417 16.5086 21.053H18.0073V21.0242C18.034 20.6877 17.9258 20.3542 17.7056 20.0938C17.5754 19.9787 17.4224 19.8909 17.256 19.8359C17.0895 19.7809 16.9133 19.7599 16.7382 19.7741C16.5152 19.7741 16.2233 19.7741 15.8593 19.7741C15.4953 19.7741 15.1215 19.7964 14.7378 19.8156L13.695 19.8764V17.9037L14.5115 17.8429C14.8394 17.8238 15.1477 17.811 15.4953 17.8014C15.8429 17.7918 16.1512 17.8014 16.4332 17.8014C17.164 17.7816 17.8916 17.9022 18.5746 18.1563C19.1151 18.3627 19.5744 18.731 19.8864 19.2082ZM17.7679 23.9528C17.9295 23.6578 18.0129 23.3281 18.0106 22.9937V22.3542H16.4988C16.1436 22.3291 15.792 22.4365 15.515 22.6548C15.4034 22.7603 15.3164 22.888 15.2598 23.0293C15.2032 23.1705 15.1784 23.3219 15.1871 23.4733C15.1801 23.6202 15.2058 23.7668 15.2624 23.9031C15.319 24.0394 15.4052 24.1622 15.515 24.263C15.789 24.4881 16.141 24.6025 16.4988 24.5827C16.7483 24.587 16.9961 24.5413 17.2268 24.4484C17.4571 24.3442 17.6469 24.1705 17.7679 23.9528ZM33.9089 18.0891C33.4376 17.7965 32.8867 17.6494 32.3282 17.6671H32.22C31.6721 17.6517 31.1323 17.7988 30.6721 18.0891C30.2185 18.3928 29.8744 18.8279 29.6883 19.3328L29.6588 19.4256C29.6588 19.3936 29.6392 19.3616 29.6293 19.3328C29.4498 18.8317 29.1167 18.3964 28.675 18.0859C28.2094 17.7915 27.6621 17.6441 27.1075 17.6639H27.0026C26.4513 17.6459 25.9076 17.7932 25.4449 18.0859C24.9985 18.3917 24.6641 18.8286 24.4906 19.3328C24.4127 19.5411 24.3513 19.7549 24.3069 19.9723V17.9165H22.3852V26.0023H24.8087V21.3119C24.7878 20.9072 24.9222 20.5094 25.1858 20.1961C25.3171 20.0546 25.4792 19.9436 25.6602 19.8711C25.8412 19.7987 26.0365 19.7666 26.2319 19.7773C26.4172 19.7688 26.6021 19.8015 26.7726 19.8729C26.943 19.9444 27.0945 20.0527 27.2157 20.1897C27.4621 20.496 27.5878 20.8783 27.5699 21.2672V26.0023H30.0163V21.3119C29.9966 20.9068 30.1322 20.5091 30.3967 20.1961C30.5258 20.0572 30.6847 19.9477 30.8621 19.8753C31.0395 19.8029 31.231 19.7695 31.4231 19.7773C31.6121 19.7665 31.8011 19.7981 31.9756 19.8696C32.1501 19.9411 32.3055 20.0506 32.4299 20.1897C32.6799 20.4943 32.807 20.8775 32.7873 21.2672V26.0023H35.2075V21.4015C35.2291 20.6992 35.1179 19.9991 34.8795 19.336C34.6976 18.8317 34.3581 18.3956 33.9089 18.0891ZM45.9703 20.1449C46.1517 20.6735 46.2415 21.2278 46.2359 21.7851V22.1048C46.2415 22.6611 46.1517 23.2144 45.9703 23.7418C45.8029 24.2269 45.54 24.6754 45.1964 25.0623C44.862 25.4405 44.4467 25.7428 43.9797 25.9479C43.4751 26.166 42.9281 26.2751 42.3761 26.2676C41.7533 26.2808 41.1375 26.1365 40.5889 25.8488C40.0727 25.566 39.6522 25.1427 39.3788 24.6307C39.3095 24.5038 39.2492 24.3724 39.1984 24.2374V26.0023H37.2768V15.234H39.6969V19.1922C39.9529 18.7401 40.329 18.3635 40.7857 18.1019C41.3125 17.8161 41.9077 17.6716 42.5106 17.6831C43.0394 17.675 43.5638 17.7775 44.0486 17.9836C44.4997 18.1802 44.8997 18.4731 45.2193 18.8405C45.5529 19.2245 45.8078 19.6673 45.9703 20.1449ZM43.7895 21.945C43.798 21.5282 43.7095 21.115 43.5305 20.7364C43.3741 20.4043 43.121 20.1244 42.8026 19.9317C42.4842 19.7389 42.1146 19.6419 41.7399 19.6526C41.3806 19.6528 41.0269 19.7395 40.7102 19.9052C40.3897 20.0712 40.1211 20.3187 39.933 20.6213C39.7275 20.9629 39.6252 21.3541 39.6379 21.75V22.2935C39.6266 22.6778 39.734 23.0565 39.9461 23.3805C40.1452 23.672 40.4187 23.9078 40.7397 24.0647C41.0496 24.2187 41.3922 24.2997 41.7399 24.3013C42.1225 24.3092 42.4989 24.2069 42.8221 24.0072C43.1376 23.8008 43.3866 23.5115 43.5403 23.1727C43.7148 22.7863 43.7999 22.3671 43.7895 21.945ZM47.0263 15.2308V16.9701H48.0101V25.9991H50.4466V15.234H47.0361L47.0263 15.2308ZM60.5109 22.5844H54.4638C54.4969 22.8029 54.5541 23.0173 54.6343 23.2239C54.7571 23.5626 54.9867 23.8547 55.2902 24.0583C55.6351 24.248 56.0219 24.3535 56.4176 24.3657C56.8134 24.378 57.2063 24.2967 57.5628 24.1287C57.8185 23.9887 58.0201 23.7708 58.1367 23.5084H60.3601C60.2458 24.0384 60.0029 24.534 59.6517 24.9536C59.2929 25.3795 58.837 25.7178 58.3203 25.9415C57.738 26.1872 57.1084 26.3082 56.4741 26.2964C55.8322 26.3093 55.1949 26.1883 54.6048 25.9415C54.0895 25.721 53.6295 25.3937 53.257 24.9823C52.9025 24.5875 52.6257 24.1323 52.4405 23.6395C52.2547 23.1503 52.1592 22.6329 52.1584 22.1112V21.8171C52.1569 21.2859 52.2524 20.7586 52.4405 20.26C52.6232 19.7695 52.8978 19.3163 53.2505 18.9236C53.6133 18.5227 54.0608 18.2032 54.5622 17.9868C55.1339 17.7487 55.7508 17.631 56.3724 17.6415C57.1635 17.6168 57.9446 17.8191 58.6188 18.2234C59.2157 18.5993 59.699 19.1235 60.019 19.7421C60.3437 20.3774 60.51 21.0785 60.5044 21.7883L60.5109 22.5844ZM54.4802 21.2512H58.2187C58.1883 21.0387 58.1322 20.8305 58.0514 20.6309C57.9313 20.3109 57.7125 20.0351 57.4251 19.8412C57.1156 19.651 56.7544 19.5562 56.3888 19.5694C56.0101 19.5575 55.636 19.6542 55.3132 19.8476C55.0136 20.0498 54.7847 20.3365 54.6573 20.6693C54.5776 20.8567 54.5182 21.0517 54.4802 21.2512Z" fill="white"/>
</svg>
