<svg width="1044" height="396" viewBox="0 0 1044 396" fill="none" xmlns="http://www.w3.org/2000/svg">
<path d="M1.74971 84C1.74971 84.4142 1.41393 84.75 0.99971 84.75C0.585495 84.75 0.24971 84.4142 0.24971 84H1.74971ZM82 5L74.5 9.33012V0.669876L82 5ZM0.99971 5H0.24971V4.25H0.99971V5ZM0.24971 84V5H1.74971V84H0.24971ZM0.99971 4.25H75.25V5.75H0.99971V4.25Z" fill="white"/>
<path d="M1042.25 312C1042.25 311.586 1042.59 311.25 1043 311.25C1043.41 311.25 1043.75 311.586 1043.75 312H1042.25ZM962 391L969.5 386.67V395.33L962 391ZM1043 391H1043.75V391.75H1043V391ZM1043.75 312V391H1042.25V312H1043.75ZM1043 391.75H968.75V390.25H1043V391.75Z" fill="white"/>
</svg>
